<svg width="16" height="16" viewBox="0 0 16 16" fill="none" xmlns="http://www.w3.org/2000/svg">
<g clip-path="url(#clip0_161_8600)">
<path d="M8 0C3.581 0 0 3.581 0 8C0 12.419 3.581 16 8 16C12.419 16 16 12.419 16 8C16 3.581 12.419 0 8 0ZM12.244 12.244C11.109 13.375 9.603 14 8 14C6.397 14 4.891 13.375 3.756 12.244C2.625 11.109 2 9.603 2 8C2 6.397 2.625 4.891 3.756 3.756C4.891 2.625 6.397 2 8 2C9.603 2 11.109 2.625 12.244 3.756C13.375 4.891 14 6.397 14 8C14 9.603 13.375 11.109 12.244 12.244ZM10.784 4.916L7.016 9.103L5.262 7.372L3.856 8.794L7.1 12L12.269 6.253L10.784 4.916Z" fill="#4DB45F"/>
</g>
<defs>
<clipPath id="clip0_161_8600">
<rect width="16" height="16" fill="white"/>
</clipPath>
</defs>
</svg>
