<svg width="26" height="23" viewBox="0 0 26 23" fill="none" xmlns="http://www.w3.org/2000/svg">
<path d="M20.9529 8.16373H19.3869L15.2934 1L13.3789 2.09397L16.8472 8.16373H5.20836L8.67774 2.09397L6.7622 1L2.66864 8.16373H1.10268C0.933173 8.16391 0.765991 8.20313 0.614087 8.27834C0.462184 8.35355 0.32964 8.46273 0.226731 8.59742C0.123822 8.73211 0.053312 8.88869 0.0206666 9.05502C-0.0119787 9.22134 -0.00588216 9.39296 0.0384833 9.55655L3.12519 20.8756C3.25351 21.3418 3.53114 21.7532 3.91556 22.0466C4.29998 22.34 4.76999 22.4992 5.25358 22.5H16.8031C17.7934 22.5 18.669 21.8328 18.9315 20.8734L22.0182 9.55545C22.0631 9.3918 22.0695 9.21998 22.037 9.05343C22.0045 8.88687 21.9339 8.7301 21.8308 8.59534C21.7276 8.46059 21.5947 8.35152 21.4424 8.27664C21.2901 8.20177 21.1226 8.16312 20.9529 8.16373ZM16.802 20.2944H5.25358L2.54733 10.3693H19.5083L16.802 20.2944Z" fill="#37C155"/>
<path d="M7.71942 12.5749H9.925V18.0888H7.71942V12.5749ZM12.1306 12.5749H14.3362V18.0888H12.1306V12.5749Z" fill="#37C155"/>
<circle cx="23" cy="3" r="3" fill="#FF0000"/>
</svg>
