<svg width="17" height="17" viewBox="0 0 17 17" fill="none" xmlns="http://www.w3.org/2000/svg">
<path d="M16.2784 0H0.721633C0.326122 0 0 0.326122 0 0.721633V13.3537C0 15.3763 1.62367 17 3.64633 17H13.319C15.3416 17 16.9653 15.3763 17 13.3537V0.721633C17 0.326122 16.6739 0 16.2784 0ZM3.35837 1.44327V2.74429C3.35837 3.1398 3.68449 3.46592 4.08 3.46592C4.47551 3.46592 4.80163 3.1398 4.80163 2.74429V1.44327H12.1637V2.74429C12.1637 3.1398 12.4898 3.46592 12.8853 3.46592C13.2808 3.46592 13.5722 3.1398 13.6069 2.74429V1.44327H15.5186V4.65592H1.40857V1.44327H3.35837ZM13.319 15.5567H3.60816C2.41816 15.5567 1.4051 14.5818 1.4051 13.3537V6.09918H15.5186V13.3537C15.5186 14.5471 14.5471 15.5567 13.319 15.5567Z" fill="#37C155"/>
<path d="M6.34204 13.5965C6.05408 13.5965 5.82163 13.3641 5.82163 13.0761V9.49572H5.5302C5.24224 9.49572 5.0098 9.26327 5.0098 8.97531C5.0098 8.68735 5.24224 8.4549 5.5302 8.4549H6.34204C6.63 8.4549 6.86245 8.68735 6.86245 8.97531V13.0761C6.86245 13.3641 6.63 13.5965 6.34204 13.5965Z" fill="#37C155"/>
<path d="M9.92939 8.4549C8.79143 8.4549 7.86857 9.60673 7.86857 11.0257C7.86857 12.4447 8.79143 13.5965 9.92939 13.5965C11.0673 13.5965 11.9902 12.4447 11.9902 11.0257C11.9902 9.60673 11.0673 8.4549 9.92939 8.4549ZM9.92939 12.5557C9.36735 12.5557 8.90939 11.8722 8.90939 11.0257C8.90939 10.1792 9.36735 9.49572 9.92939 9.49572C10.4914 9.49572 10.9494 10.1792 10.9494 11.0257C10.9494 11.8688 10.4914 12.5557 9.92939 12.5557Z" fill="#37C155"/>
</svg>
