<svg width="133" height="34" viewBox="0 0 133 34" fill="none" xmlns="http://www.w3.org/2000/svg">
<path fill-rule="evenodd" clip-rule="evenodd" d="M121.168 18.8618C123.041 18.8618 124.671 19.9035 125.514 21.441H123.414C122.827 20.8865 122.037 20.547 121.168 20.547C120.298 20.547 119.507 20.8865 118.92 21.441H116.82C117.664 19.9035 119.293 18.8618 121.168 18.8618Z" fill="#FF0A00"/>
<path fill-rule="evenodd" clip-rule="evenodd" d="M123.384 22.2722H128.932C130.182 22.2722 131.263 22.7863 131.994 23.6126C132.727 24.4392 133.111 25.5802 132.972 26.8335C132.831 28.0896 132.193 29.2302 131.275 30.0544C130.359 30.8814 129.163 31.3947 127.914 31.3947H123.384H118.949H113.401C112.151 31.3947 111.07 30.881 110.338 30.0544C109.606 29.2281 109.221 28.0871 109.361 26.8335C109.501 25.5774 110.14 24.4367 111.057 23.6126C111.974 22.7859 113.169 22.2722 114.419 22.2722H118.949H123.384ZM111.251 27.5407L110.935 29.1564H112.689L113.005 27.5407H111.251ZM117.965 24.5715H115.342C115.225 24.5715 115.125 24.5747 115.043 24.5804C114.961 24.5869 114.89 24.5959 114.829 24.6088C114.768 24.6213 114.713 24.6414 114.664 24.6693C114.615 24.6969 114.567 24.7303 114.521 24.7668C114.31 24.9414 114.163 25.2357 114.079 25.6469L113.707 27.5562C113.684 27.687 113.668 27.7877 113.658 27.8598C113.649 27.9308 113.644 28.0042 113.644 28.0802C113.644 28.3914 113.744 28.656 113.945 28.8757C114.039 28.9815 114.148 29.0546 114.271 29.0951C114.395 29.1356 114.565 29.156 114.781 29.156H117.068L117.376 28.1476C117.296 28.191 117.214 28.22 117.127 28.2358C117.041 28.2512 116.923 28.2588 116.773 28.2588H115.798C115.629 28.2588 115.509 28.2358 115.436 28.1889C115.364 28.1423 115.328 28.0663 115.328 27.9619C115.328 27.9304 115.33 27.8996 115.335 27.8684C115.339 27.8372 115.348 27.787 115.363 27.7189L115.707 25.9326C115.725 25.833 115.745 25.7537 115.767 25.6957C115.787 25.6369 115.816 25.5899 115.85 25.5555C115.885 25.5218 115.93 25.4985 115.984 25.4863C116.037 25.4734 116.104 25.4673 116.184 25.4673H117.334C117.456 25.4673 117.56 25.4795 117.647 25.5046C117.733 25.5297 117.809 25.567 117.874 25.6168L117.965 24.5715ZM119.629 24.5715C119.395 24.5715 119.211 24.5822 119.077 24.6041C118.944 24.626 118.827 24.6683 118.724 24.7306C118.597 24.8052 118.488 24.9199 118.397 25.0776C118.306 25.2336 118.241 25.4107 118.204 25.6096L117.811 27.6221C117.797 27.7089 117.787 27.7791 117.779 27.8322C117.772 27.8849 117.769 27.9458 117.769 28.0139C117.769 28.1964 117.794 28.3631 117.847 28.5151C117.898 28.6678 117.975 28.8015 118.078 28.9133C118.124 28.9693 118.169 29.0126 118.211 29.0438C118.253 29.075 118.304 29.0983 118.362 29.1137C118.421 29.1295 118.493 29.1403 118.579 29.1471C118.666 29.1528 118.776 29.156 118.913 29.156H120.989C121.125 29.156 121.242 29.151 121.34 29.1417C121.438 29.1327 121.526 29.117 121.603 29.0951C121.68 29.0732 121.747 29.0453 121.803 29.0112C121.859 28.9768 121.913 28.9348 121.965 28.8854C122.021 28.8291 122.067 28.771 122.105 28.7151C122.142 28.6595 122.176 28.5972 122.206 28.5283C122.237 28.4602 122.265 28.3803 122.291 28.29C122.317 28.2 122.341 28.0928 122.364 27.9662L122.687 26.2832C122.71 26.171 122.726 26.0742 122.736 25.9936C122.745 25.9122 122.75 25.8376 122.75 25.7691C122.75 25.6243 122.734 25.4877 122.701 25.3565C122.668 25.2261 122.624 25.1106 122.567 25.0113C122.474 24.8479 122.363 24.7346 122.235 24.669C122.106 24.6034 121.931 24.5711 121.711 24.5711H119.629V24.5715ZM119.838 25.8677L119.474 27.7386C119.454 27.8444 119.445 27.911 119.443 27.9394C119.44 27.967 119.438 27.9906 119.438 28.0093C119.438 28.176 119.547 28.2595 119.76 28.2595H120.256C120.331 28.2595 120.391 28.2552 120.441 28.2462C120.49 28.2365 120.53 28.2183 120.564 28.1896C120.597 28.162 120.623 28.1229 120.641 28.0731C120.658 28.025 120.675 27.9562 120.688 27.8695L121.032 26.1011C121.055 26.0025 121.069 25.9319 121.074 25.891C121.078 25.8512 121.081 25.8118 121.081 25.7745C121.081 25.6706 121.052 25.5928 120.997 25.5429C120.942 25.4928 120.85 25.4684 120.724 25.4684H120.305C120.225 25.4684 120.16 25.4745 120.107 25.4874C120.053 25.4996 120.008 25.5196 119.973 25.5476C119.938 25.5756 119.911 25.6161 119.889 25.6688C119.869 25.7197 119.852 25.7874 119.838 25.8677ZM125.262 24.5715H123.48C123.503 24.6403 123.518 24.6973 123.522 24.7439C123.527 24.7905 123.529 24.8418 123.529 24.8984C123.529 24.9683 123.524 25.0522 123.515 25.1522C123.506 25.2512 123.494 25.3325 123.48 25.3949L122.961 28.0903C122.934 28.233 122.908 28.353 122.884 28.4498C122.86 28.547 122.837 28.6323 122.814 28.7072C122.791 28.7814 122.762 28.8563 122.73 28.9273C122.697 28.9994 122.659 29.0754 122.617 29.1567H124.596C124.577 29.0879 124.566 29.032 124.561 28.9886C124.556 28.9452 124.554 28.8918 124.554 28.8298C124.554 28.7617 124.558 28.6739 124.568 28.5681C124.576 28.4627 124.586 28.3846 124.595 28.3351L125.059 25.9638C125.096 25.7516 125.144 25.6164 125.202 25.5569C125.261 25.4978 125.368 25.4687 125.522 25.4687H125.943C126.027 25.4687 126.095 25.4931 126.146 25.5433C126.198 25.5935 126.224 25.6612 126.224 25.7487C126.224 25.7613 126.224 25.7734 126.224 25.786C126.224 25.7985 126.221 25.8161 126.216 25.8376C126.212 25.8598 126.207 25.8889 126.202 25.9262C126.197 25.9638 126.189 26.0201 126.174 26.0943L125.782 28.0924C125.754 28.2358 125.728 28.3559 125.704 28.452C125.68 28.5491 125.657 28.6344 125.634 28.709C125.611 28.7836 125.582 28.8571 125.55 28.928C125.517 29.0001 125.48 29.0761 125.438 29.1575H127.423C127.4 29.0886 127.386 29.0327 127.381 28.9893C127.377 28.946 127.374 28.8925 127.374 28.8305C127.374 28.7624 127.379 28.6778 127.388 28.5785C127.397 28.4789 127.409 28.3979 127.423 28.3355L127.887 25.9262C127.924 25.7394 127.969 25.6168 128.02 25.5573C128.071 25.4981 128.162 25.4691 128.294 25.4691H128.707C128.927 25.4691 129.037 25.5684 129.037 25.7674C129.037 25.805 129.033 25.8473 129.027 25.8943C129.02 25.9412 129.011 25.9953 129.003 26.0577L128.61 28.0928C128.581 28.2301 128.555 28.3466 128.532 28.4434C128.508 28.5402 128.484 28.6273 128.458 28.7047C128.432 28.7821 128.404 28.8574 128.374 28.9284C128.344 29.0004 128.308 29.0764 128.265 29.1578H130.248C130.226 29.089 130.211 29.0331 130.207 28.9897C130.202 28.9463 130.2 28.8929 130.2 28.8309C130.2 28.761 130.205 28.6782 130.213 28.5818C130.222 28.4857 130.235 28.4032 130.248 28.3348L130.637 26.332C130.651 26.2506 130.662 26.1853 130.672 26.1355C130.681 26.0857 130.689 26.0423 130.693 26.005C130.698 25.9677 130.702 25.9337 130.704 25.9025C130.706 25.8713 130.708 25.8369 130.708 25.7996C130.708 25.6358 130.684 25.4777 130.637 25.3218C130.59 25.1662 130.526 25.0296 130.447 24.9095C130.358 24.7848 130.261 24.698 130.158 24.6482C130.055 24.5984 129.927 24.5736 129.778 24.5736H128.547C128.397 24.5736 128.287 24.6034 128.217 24.6636C128.147 24.7228 128.081 24.8414 128.021 25.0171C127.969 24.8414 127.912 24.7228 127.849 24.6636C127.785 24.6034 127.675 24.5736 127.515 24.5736H125.818C125.723 24.5736 125.646 24.5783 125.583 24.588C125.519 24.5969 125.465 24.6192 125.418 24.6529C125.371 24.6873 125.33 24.7328 125.295 24.7884C125.26 24.8443 125.221 24.9196 125.179 25.0131L125.262 24.5715Z" fill="#FF0000"/>
<path fill-rule="evenodd" clip-rule="evenodd" d="M18.3135 0C27.0115 0.741687 33.8408 8.05459 33.8408 16.9685C33.8408 26.3745 26.236 34 16.8551 34C10.5403 34 5.03098 30.5447 2.10327 25.417C4.75605 27.689 8.19858 29.0616 11.9607 29.0616C20.3481 29.0616 27.1474 22.2441 27.1474 13.8343C27.1474 7.69863 23.5278 2.41111 18.3135 0Z" fill="#FF0000"/>
<path fill-rule="evenodd" clip-rule="evenodd" d="M13.241 1.14526C13.8513 1.14526 14.4473 1.20513 15.0243 1.31805C10.8045 1.7855 7.52252 5.37169 7.52252 9.72753C7.52252 14.4006 11.3008 18.189 15.9614 18.189C17.055 18.189 18.1 17.98 19.0589 17.6004C17.4708 18.893 15.4462 19.6688 13.241 19.6688C8.13924 19.6688 4.00384 15.5223 4.00384 10.4068C4.00384 5.2914 8.1396 1.14526 13.241 1.14526Z" fill="#FF0000"/>
<path fill-rule="evenodd" clip-rule="evenodd" d="M24.6869 13.3904C24.7234 13.7765 24.7423 14.1672 24.7423 14.5626C24.7423 21.4134 19.2037 26.9673 12.3712 26.9673C5.53866 26.9669 0 21.4131 0 14.5623C0 10.9918 1.50515 7.7738 3.91302 5.51074C2.99027 7.14611 2.46329 9.03563 2.46329 11.0485C2.46329 17.2691 7.49249 22.3121 13.6965 22.3121C19.1004 22.3121 23.6119 18.4865 24.6869 13.3904Z" fill="#FF0000"/>
<path fill-rule="evenodd" clip-rule="evenodd" d="M15.7719 2.45166C18.9581 2.45166 21.6119 4.73515 22.1961 7.75854C21.1929 5.91669 19.2434 4.66704 17.0032 4.66704C13.7376 4.66704 11.0902 7.32156 11.0902 10.5959C11.0902 12.3216 11.826 13.8749 12.9993 14.9585C10.7713 13.9121 9.22752 11.6437 9.22752 9.0132C9.22752 5.38937 12.1574 2.45166 15.7719 2.45166Z" fill="#FF0000"/>
<path fill-rule="evenodd" clip-rule="evenodd" d="M18.5044 7.48291L19.4289 10.3543L22.4378 10.3486L20.0002 12.1173L20.9355 14.9851L18.5044 13.2067L16.0733 14.9851L17.0085 12.1173L14.5706 10.3486L17.5802 10.3543L18.5044 7.48291Z" fill="black"/>
<path fill-rule="evenodd" clip-rule="evenodd" d="M50.5704 14.6162C50.5204 15.9361 49.741 16.5964 48.2341 16.5964H42.5531C41.4541 16.5964 40.8084 16.1648 40.6132 15.3059C40.5639 15.0893 40.5542 14.8617 40.5775 14.6115L40.817 10.1467H39.1467L39.3448 8.16682C40.4552 7.79472 41.2342 7.32046 41.6851 6.74081C42.1909 6.0848 42.6235 4.90398 42.9796 3.1901H45.1608L44.907 8.16682H47.6016C47.4747 9.48745 46.7564 10.1467 45.4483 10.1467H44.7665L44.5549 14.6158H50.5704V14.6162ZM120.634 13.5117L120.651 13.6088C120.804 14.2817 121.362 14.6162 122.329 14.6162H131.017C131.005 15.251 130.76 15.75 130.287 16.1139C129.862 16.4358 129.328 16.5967 128.688 16.5967H122.478C118.867 16.5967 116.785 15.3869 116.237 12.9665C115.885 11.4132 116.224 10.1901 117.257 9.31C118.147 8.54824 119.323 8.16718 120.788 8.16718H122.405C123.345 8.16718 124.211 8.32814 124.999 8.64933C126.048 9.08165 126.69 9.733 126.935 10.6084C127.139 14.3789 122.923 13.5117 120.634 13.5117ZM120.737 11.62H123.866L123.87 10.1474H120.849L120.737 11.62ZM65.3645 14.6162H60.8401L61.4325 8.16718H57.4108L56.7955 14.6162H54.5314L55.1438 8.16718H51.0949L50.5136 13.8799C50.4832 14.1978 50.4993 14.5018 50.5669 14.7986C50.6863 15.3274 50.9387 15.7547 51.328 16.0762C51.7417 16.424 52.2486 16.5967 52.8539 16.5967H54.817C55.8102 16.5967 56.5056 16.2074 56.9128 15.4328C57.088 16.2074 57.7201 16.5967 58.8116 16.5967H63.4657C63.9337 16.5967 64.3441 16.4569 64.6952 16.178C65.1396 15.8224 65.3645 15.3019 65.3645 14.6162ZM78.3781 14.6162C78.509 15.1915 78.3345 15.6826 77.8493 16.0759C77.4221 16.4236 76.933 16.5964 76.381 16.5964H72.1076C70.9736 16.5964 70.2932 16.0759 70.0565 15.0349C69.9958 14.7682 69.9811 14.485 70.0072 14.1803L70.2231 10.147H67.9479L67.1006 13.7107C67.0666 14.3154 66.7617 14.6162 66.1832 14.6162H65.2018L65.6412 10.147C65.1671 10.033 64.7399 9.77495 64.3706 9.37309C63.9988 8.97554 63.7535 8.51383 63.6352 7.99332C63.4203 7.04515 63.6495 6.30884 64.3191 5.78834C64.8761 5.36139 65.6122 5.14559 66.5171 5.14559H68.3097L68.0698 8.16718H74.0286L73.6828 14.6162H78.3781ZM93.6698 14.6162H89.0318L89.2123 11.2017C89.2477 10.8375 89.237 10.5195 89.1751 10.2496C88.9796 9.38564 88.3528 8.95475 87.2985 8.95475H86.4312L88.3986 5.98371H85.7805L82.4327 11.3028L82.944 1.64185H78.9834L78.1833 16.5967H79.8132C80.3648 16.5967 80.8132 16.4781 81.1503 16.2372C81.4059 16.0547 81.7549 15.6658 82.1957 15.0732C83.9993 12.708 85.0219 11.3282 85.2682 10.935L85.0805 14.3878C85.0519 14.7133 85.0658 15.0098 85.1273 15.2804C85.3265 16.1569 85.9353 16.5967 86.9546 16.5967H91.3349C91.8669 16.5967 92.3417 16.4738 92.7532 16.2246C93.3431 15.8773 93.6491 15.3439 93.6698 14.6162ZM102.205 14.6162C102.176 15.3439 101.897 15.8769 101.367 16.2243C100.986 16.4734 100.538 16.5964 100.025 16.5964H95.6301C94.5679 16.5964 93.924 16.1013 93.6981 15.1069C93.6351 14.8277 93.6194 14.5269 93.6491 14.2053L93.9737 8.16682H97.9729L97.6283 14.6158H102.205V14.6162ZM117.044 14.6162H112.158L112.501 8.16718H108.517L108.18 14.6162H106.129L106.565 8.16718H102.558L102.14 14.1294C102.127 14.371 102.149 14.6036 102.203 14.8366C102.317 15.3399 102.572 15.7593 102.97 16.0934C103.366 16.4272 103.812 16.5967 104.299 16.5967H105.143C104.803 16.9269 104.571 17.4008 104.457 18.0231C104.343 18.6404 104.36 19.2839 104.509 19.9438C104.698 20.7773 105.066 21.4595 105.616 21.9879C106.244 22.593 107.011 22.8937 107.918 22.8937C109.36 22.8937 110.418 22.2417 111.092 20.9339C111.576 19.9951 111.909 18.5472 112.098 16.5964H114.93C116.189 16.5967 116.895 15.9361 117.044 14.6162ZM108.087 16.9269L107.829 21.0103C107.316 20.6805 106.996 20.241 106.873 19.6947C106.733 19.0813 106.789 18.4673 107.037 17.8532C107.285 17.2355 107.634 16.9269 108.087 16.9269Z" fill="black"/>
<path fill-rule="evenodd" clip-rule="evenodd" d="M64.5111 28.476C64.5976 29.7963 63.8683 30.4559 62.3242 30.4559H57.5713C57.1959 30.4559 56.8095 30.291 56.4169 29.9648C56.0244 29.6393 55.777 29.2711 55.6786 28.8563C55.6475 28.7251 55.6329 28.5979 55.6357 28.4756C55.6615 27.8616 55.7058 26.9733 55.7684 25.8093L52.6515 29.3173C51.8621 30.1931 51.1124 30.6333 50.4024 30.6333C49.3449 30.6333 48.7135 30.2103 48.5129 29.3682C48.4475 29.0929 48.4375 28.7972 48.4754 28.471L48.7925 25.8093L45.1172 29.9232C44.8026 30.2784 44.3504 30.4559 43.7594 30.4559H41.3733L41.8474 22.0259H46.0178L45.7793 26.2452L48.7328 22.9404C49.4696 22.1109 50.4206 21.6958 51.5818 21.6958C52.5353 21.6958 53.1038 22.0726 53.284 22.83C53.3355 23.0462 53.3476 23.2828 53.3212 23.5409L53.033 25.9867L55.7662 22.8465C56.4301 22.0808 57.2803 21.6954 58.3142 21.6954C59.2917 21.6954 59.8834 22.136 60.0929 23.0161C60.1633 23.3122 60.1808 23.638 60.1437 24.0022L59.7186 28.4756H64.5111V28.476ZM79.5962 28.476H74.7279L75.1136 22.0263H68.5929C66.9644 22.0263 65.7034 22.4791 64.8182 23.3896C63.8397 24.3922 63.5526 25.7552 63.9641 27.4855C64.1915 28.4419 64.6602 29.2206 65.3724 29.8171C66.0813 30.4139 66.89 30.71 67.8035 30.71C69.0408 30.71 69.9611 30.1985 70.5664 29.1697C70.7705 30.0289 71.5023 30.4562 72.7676 30.4562H77.2015C78.7381 30.4559 79.535 29.7959 79.5962 28.476ZM70.8281 24.0065L70.576 28.471C69.2471 28.471 68.4953 28.1114 68.324 27.392C68.289 27.2439 68.2736 27.079 68.2786 26.8969L68.4052 24.0065H70.8281ZM93.2651 28.476C93.402 29.0514 93.219 29.5418 92.7099 29.9357C92.2616 30.2824 91.7482 30.4559 91.1693 30.4559H86.6879C85.4988 30.4559 84.7845 29.9357 84.5367 28.8947C84.4734 28.628 84.4573 28.3444 84.4852 28.0397L84.7112 24.0065H82.3247L81.4359 27.5698C81.4002 28.1749 81.0809 28.4756 80.4746 28.4756H79.4449L79.9061 24.0062C79.4081 23.8918 78.9601 23.6341 78.573 23.2322C78.1833 22.8343 77.9255 22.373 77.8021 21.8524C77.5765 20.9039 77.8168 20.168 78.5193 19.6478C79.1039 19.2205 79.8747 19.0047 80.8242 19.0047H82.7037L82.4527 22.0259H88.7021L88.3396 28.4756H93.2651V28.476ZM103.652 28.476H97.3429L97.5657 24.0065H98.28C99.6525 24.0065 100.405 23.3466 100.539 22.0263H97.7133L97.9021 18.4878H95.3212C95.0295 19.4438 94.6991 20.1475 94.333 20.6006C93.8604 21.1799 93.0434 21.6546 91.8787 22.0267L91.6706 24.0069H93.4224L93.1714 28.4713C93.1468 28.7212 93.1571 28.9499 93.2086 29.1661C93.4124 30.0246 94.0899 30.4566 95.2433 30.4566H101.202C102.783 30.4559 103.599 29.7959 103.652 28.476Z" fill="black"/>
<path d="M54.9497 5.92768C55.7418 5.92768 56.384 5.28377 56.384 4.48947C56.384 3.69518 55.7418 3.05127 54.9497 3.05127C54.1575 3.05127 53.5153 3.69518 53.5153 4.48947C53.5153 5.28377 54.1575 5.92768 54.9497 5.92768Z" fill="black"/>
<path d="M58.7687 5.92768C59.5608 5.92768 60.203 5.28377 60.203 4.48947C60.203 3.69518 59.5608 3.05127 58.7687 3.05127C57.9765 3.05127 57.3343 3.69518 57.3343 4.48947C57.3343 5.28377 57.9765 5.92768 58.7687 5.92768Z" fill="black"/>
<path d="M96.0841 5.92768C96.8763 5.92768 97.5185 5.28377 97.5185 4.48947C97.5185 3.69518 96.8763 3.05127 96.0841 3.05127C95.292 3.05127 94.6498 3.69518 94.6498 4.48947C94.6498 5.28377 95.292 5.92768 96.0841 5.92768Z" fill="black"/>
</svg>
