<svg width="13" height="13" viewBox="0 0 13 13" fill="none" xmlns="http://www.w3.org/2000/svg">
<path d="M9.71924 1.08847C8.59837 1.08847 7.60822 1.65118 7.01653 2.5086C7.01653 2.5086 6.81674 2.80757 6.49986 2.80757C6.18326 2.80757 5.98347 2.5086 5.98347 2.5086C5.39149 1.65118 4.40192 1.08847 3.28076 1.08847C1.46873 1.08847 0 2.5572 0 4.3698C0 4.7978 0.0841222 5.20506 0.233041 5.57991C1.15213 8.43381 5.26275 11.789 6.49986 11.9115C7.73725 11.789 11.8473 8.43381 12.767 5.57991C12.9159 5.20534 13 4.7978 13 4.3698C13 2.5572 11.5313 1.08847 9.71924 1.08847Z" fill="#E1E1E1"/>
</svg>
