<svg width="22" height="22" viewBox="0 0 22 22" fill="none" xmlns="http://www.w3.org/2000/svg">
<path fill-rule="evenodd" clip-rule="evenodd" d="M11.6874 7.63322C11.6874 7.25352 11.3796 6.94572 10.9999 6.94572C10.6202 6.94572 10.3124 7.25352 10.3124 7.63322V10.3037H7.63879C7.2591 10.3037 6.95129 10.6115 6.95129 10.9912C6.95129 11.3709 7.2591 11.6787 7.63879 11.6787H10.3124V14.349C10.3124 14.7287 10.6202 15.0365 10.9999 15.0365C11.3796 15.0365 11.6874 14.7287 11.6874 14.349V11.6787H14.361C14.7407 11.6787 15.0485 11.3709 15.0485 10.9912C15.0485 10.6115 14.7407 10.3037 14.361 10.3037H11.6874V7.63322Z" fill="#37C155"/>
<path fill-rule="evenodd" clip-rule="evenodd" d="M15.2953 1.83333H6.70481C3.71036 1.83333 1.83337 3.95273 1.83337 6.95306V15.0469C1.83337 18.0472 3.70163 20.1667 6.70481 20.1667H15.2953C18.2984 20.1667 20.1667 18.0472 20.1667 15.0469V6.95306C20.1667 3.95273 18.2984 1.83333 15.2953 1.83333Z" stroke="#37C155" stroke-width="1.5" stroke-linecap="round" stroke-linejoin="round"/>
</svg>
