<svg width="22" height="19" viewBox="0 0 22 19" fill="none" xmlns="http://www.w3.org/2000/svg">
<path d="M5.55206 1C7.10555 1 8.47784 1.7779 9.30139 2.96918L9.30199 2.97006L9.30296 2.97146L9.31194 2.98439C9.31937 2.99495 9.32843 3.00755 9.3391 3.02189C9.36038 3.05049 9.38846 3.08658 9.42316 3.12766C9.49152 3.20859 9.59113 3.31547 9.721 3.4239C9.96974 3.63157 10.4088 3.90925 10.9998 3.90925C11.5907 3.90925 12.0299 3.63178 12.2788 3.42402C12.4087 3.31558 12.5084 3.20868 12.5768 3.12774C12.6115 3.08664 12.6396 3.05054 12.6609 3.02193C12.6715 3.00758 12.6806 2.99497 12.688 2.9844L12.6972 2.97127L12.698 2.97007L12.6986 2.96919C13.5215 1.77812 14.8947 1 16.4479 1C18.9621 1 21 3.03771 21 5.55302C21 6.14491 20.8839 6.70951 20.6764 7.23146L20.664 7.26244L20.6538 7.29419C19.9546 9.46401 17.9775 11.9487 15.822 13.9608C14.7592 14.9529 13.6892 15.7962 12.773 16.3973C12.3145 16.6981 11.9072 16.9298 11.5684 17.0887C11.3052 17.212 11.1178 17.2749 10.9998 17.303C10.8818 17.2749 10.6944 17.212 10.4313 17.0887C10.0925 16.9298 9.68522 16.6981 9.2267 16.3973C8.31049 15.7962 7.24044 14.9529 6.17762 13.9608C4.02199 11.9486 2.04498 9.46404 1.34623 7.29436L1.33602 7.26265L1.32373 7.2317C1.11607 6.70899 1 6.14478 1 5.55302C1 3.03771 3.03794 1 5.55206 1Z" fill="white" stroke="#37C155" stroke-width="2"/>
</svg>
