<svg width="22" height="24" viewBox="0 0 22 24" fill="none" xmlns="http://www.w3.org/2000/svg">
<path d="M21.7833 16.2845L15.8331 10.374C16.0525 9.98537 16.1775 9.5376 16.1775 9.06122C16.1775 8.11381 15.6827 7.2791 14.9361 6.79876L15.608 2.99589C15.7342 2.25433 15.5252 1.49838 15.0346 0.921698C14.5363 0.335951 13.805 0 13.0283 0H8.93165C8.15495 0 7.42367 0.335951 6.92532 0.921698C6.43476 1.49829 6.2258 2.25433 6.35203 2.99589C6.35258 2.99917 6.35317 3.00245 6.35376 3.00573L7.30183 8.14834V9.24671L0.21665 16.2845C-0.00413873 16.5039 -0.0624929 16.8373 0.0708388 17.1178C0.637857 18.3105 1.39543 19.3972 2.32253 20.3479C3.43684 21.4906 4.74391 22.389 6.20731 23.0181C7.72309 23.6696 9.3356 24 11 24C12.6645 24 14.277 23.6696 15.7927 23.018C17.2562 22.3889 18.5632 21.4906 19.6775 20.3479C20.6047 19.3971 21.3622 18.3103 21.9292 17.1177C22.0625 16.8373 22.0041 16.5038 21.7833 16.2845ZM14.6982 9.06122C14.6982 9.73641 14.1452 10.2857 13.4654 10.2857C12.7857 10.2857 12.2327 9.73641 12.2327 9.06122C12.2327 8.38604 12.7857 7.83673 13.4654 7.83673C13.6021 7.83673 13.7336 7.85892 13.8566 7.89992C13.8647 7.90291 13.8729 7.9057 13.8812 7.90839C14.357 8.07815 14.6982 8.53087 14.6982 9.06122ZM8.05511 1.87019C8.2718 1.61549 8.5913 1.46939 8.93161 1.46939H13.0283C13.3686 1.46939 13.6881 1.61544 13.9048 1.87019C14.1167 2.11935 14.2036 2.43218 14.1501 2.74643L13.5104 6.36779C13.4954 6.36754 13.4804 6.3674 13.4654 6.3674C12.2263 6.3674 11.1787 7.19706 10.8559 8.32658H8.78106V8.08168C8.78106 8.03731 8.77701 7.99298 8.76892 7.94934L7.80985 2.74663C7.75707 2.42939 7.84409 2.11822 8.05511 1.87019ZM19.0008 18.9083L14.9746 14.9091C14.6858 14.6222 14.2175 14.6222 13.9287 14.9091C13.6398 15.196 13.6398 15.6612 13.9287 15.9481L17.9554 19.9479C16.0273 21.6196 13.5899 22.5306 11 22.5306C8.10498 22.5306 5.40056 21.3924 3.38504 19.3255C2.69145 18.6143 2.10604 17.8165 1.64019 16.9485L8.56446 10.0705C8.64324 9.99228 8.70238 9.89824 8.73878 9.79592H10.856C11.1787 10.9254 12.2263 11.7551 13.4655 11.7551C13.945 11.7551 14.3958 11.6309 14.7871 11.4131L20.3599 16.9486C19.9831 17.6506 19.5281 18.3067 19.0008 18.9083Z" fill="#37C155"/>
</svg>
