<svg width="15" height="15" viewBox="0 0 15 15" fill="none" xmlns="http://www.w3.org/2000/svg">
<path d="M7.25 0C3.25235 0 0 3.25239 0 7.24998C0 11.2477 3.25235 14.5 7.25 14.5C11.2477 14.5 14.5 11.2477 14.5 7.24998C14.5 3.25239 11.2477 0 7.25 0ZM7.25 13.1818C3.9792 13.1818 1.31818 10.5208 1.31818 7.25002C1.31818 3.97922 3.9792 1.31825 7.25 1.31825C10.5208 1.31825 13.1818 3.97922 13.1818 7.24998C13.1818 10.5209 10.5208 13.1818 7.25 13.1818Z" fill="#FF0000"/>
<path d="M7.25 5.71242C6.88601 5.71242 6.59091 6.00753 6.59091 6.37154V10.765C6.59091 11.129 6.88601 11.4241 7.25 11.4241C7.61399 11.4241 7.90909 11.129 7.90909 10.765V6.37154C7.90909 6.00757 7.61399 5.71242 7.25 5.71242Z" fill="#FF0000"/>
<path d="M7.25 3.07605C7.07644 3.07605 6.90679 3.14635 6.7838 3.26895C6.66121 3.39155 6.59091 3.5616 6.59091 3.73517C6.59091 3.90874 6.66121 4.07836 6.7838 4.20139C6.90639 4.32399 7.07644 4.3943 7.25 4.3943C7.42356 4.3943 7.59317 4.32399 7.71615 4.20139C7.83874 4.07836 7.90909 3.90874 7.90909 3.73517C7.90909 3.5616 7.83874 3.39155 7.71615 3.26895C7.59317 3.14631 7.42356 3.07605 7.25 3.07605Z" fill="#FF0000"/>
</svg>
