<svg width="18" height="19" viewBox="0 0 18 19" fill="none" xmlns="http://www.w3.org/2000/svg">
<circle cx="9" cy="10" r="8.5" fill="#37C155" stroke="white"/>
<path d="M9.249 7.032V14H8.105V7.032H9.249ZM8.69 4.419C8.86333 4.419 9.015 4.47967 9.145 4.601C9.28367 4.71367 9.353 4.89567 9.353 5.147C9.353 5.38967 9.28367 5.57167 9.145 5.693C9.015 5.81433 8.86333 5.875 8.69 5.875C8.49933 5.875 8.339 5.81433 8.209 5.693C8.079 5.57167 8.014 5.38967 8.014 5.147C8.014 4.89567 8.079 4.71367 8.209 4.601C8.339 4.47967 8.49933 4.419 8.69 4.419Z" fill="white"/>
</svg>
