<svg width="26" height="21" viewBox="0 0 26 21" fill="none" xmlns="http://www.w3.org/2000/svg">
<path d="M25.7323 13.3997V13.0783H25.6524L25.5599 13.2991L25.4679 13.0783H25.3874V13.3997H25.4442V13.1574L25.5307 13.3665H25.5895L25.676 13.1568V13.3997H25.7323ZM25.225 13.3997V13.1331H25.3276V13.0789H25.0662V13.1331H25.1687V13.3997H25.225Z" fill="#F79410"/>
<path d="M16.6426 14.7445H9.72391V1.98315H16.6426V14.7445Z" fill="#FF5F00"/>
<path d="M10.1671 8.3628C10.1671 5.77409 11.3481 3.46814 13.1872 1.9821C11.8423 0.895431 10.145 0.246836 8.30042 0.246836C3.93352 0.246836 0.393646 3.88042 0.393646 8.3628C0.393646 12.8452 3.93352 16.4788 8.30042 16.4788C10.145 16.4788 11.8423 15.8302 13.1872 14.7435C11.3481 13.2575 10.1671 10.9515 10.1671 8.3628Z" fill="#EB001B"/>
<path d="M25.9736 8.3628C25.9736 12.8452 22.4338 16.4788 18.0669 16.4788C16.2223 16.4788 14.525 15.8302 13.1796 14.7435C15.0192 13.2575 16.2002 10.9515 16.2002 8.3628C16.2002 5.77409 15.0192 3.46814 13.1796 1.9821C14.525 0.895431 16.2223 0.246836 18.0669 0.246836C22.4338 0.246836 25.9736 3.88042 25.9736 8.3628Z" fill="#F79E1B"/>
<path d="M25.4508 20.3955V20.4487H25.4985C25.5091 20.4487 25.5182 20.4461 25.5247 20.442C25.5307 20.4378 25.5342 20.4306 25.5342 20.4218C25.5342 20.4131 25.5307 20.4064 25.5247 20.4022C25.5182 20.3976 25.5091 20.3955 25.4985 20.3955H25.4508ZM25.499 20.3584C25.5237 20.3584 25.5428 20.364 25.5564 20.3754C25.5699 20.3868 25.5765 20.4022 25.5765 20.4218C25.5765 20.4383 25.5714 20.4518 25.5604 20.4626C25.5498 20.4729 25.5347 20.4796 25.5146 20.4822L25.578 20.557H25.5287L25.4699 20.4827H25.4508V20.557H25.4096V20.3584H25.499ZM25.4865 20.6257C25.5091 20.6257 25.5302 20.621 25.5493 20.6122C25.5689 20.6035 25.586 20.5916 25.6006 20.5766C25.6152 20.5617 25.6267 20.5441 25.6353 20.5235C25.6433 20.5034 25.6479 20.4817 25.6479 20.4585C25.6479 20.4353 25.6433 20.4136 25.6353 20.3935C25.6267 20.3733 25.6152 20.3553 25.6006 20.3403C25.586 20.3253 25.5689 20.3135 25.5493 20.3047C25.5302 20.2965 25.5091 20.2923 25.4865 20.2923C25.4639 20.2923 25.4422 20.2965 25.4226 20.3047C25.4025 20.3135 25.3849 20.3253 25.3703 20.3403C25.3558 20.3553 25.3442 20.3733 25.3362 20.3935C25.3276 20.4136 25.3236 20.4353 25.3236 20.4585C25.3236 20.4817 25.3276 20.5034 25.3362 20.5235C25.3442 20.5441 25.3558 20.5617 25.3703 20.5766C25.3849 20.5916 25.4025 20.6035 25.4226 20.6122C25.4422 20.621 25.4639 20.6257 25.4865 20.6257ZM25.4865 20.2443C25.5161 20.2443 25.5433 20.25 25.5694 20.2614C25.5951 20.2722 25.6172 20.2877 25.6368 20.3073C25.6559 20.3264 25.671 20.3491 25.682 20.3754C25.6931 20.4012 25.6986 20.4291 25.6986 20.4585C25.6986 20.4879 25.6931 20.5157 25.682 20.5415C25.671 20.5673 25.6559 20.59 25.6368 20.6097C25.6172 20.6287 25.5951 20.6442 25.5694 20.6556C25.5433 20.6669 25.5161 20.6726 25.4865 20.6726C25.4563 20.6726 25.4287 20.6669 25.4025 20.6556C25.3764 20.6442 25.3538 20.6287 25.3346 20.6097C25.3155 20.59 25.3005 20.5673 25.2894 20.5415C25.2783 20.5157 25.2728 20.4879 25.2728 20.4585C25.2728 20.4291 25.2783 20.4012 25.2894 20.3754C25.3005 20.3491 25.3155 20.3264 25.3346 20.3073C25.3538 20.2877 25.3764 20.2722 25.4025 20.2614C25.4287 20.25 25.4563 20.2443 25.4865 20.2443ZM5.89879 19.4791C5.89879 19.1004 6.14061 18.7893 6.53577 18.7893C6.91334 18.7893 7.16823 19.087 7.16823 19.4791C7.16823 19.8713 6.91334 20.169 6.53577 20.169C6.14061 20.169 5.89879 19.8579 5.89879 19.4791ZM7.59859 19.4791V18.4017H7.14209V18.6634C6.9973 18.4693 6.77759 18.3476 6.47896 18.3476C5.89024 18.3476 5.42871 18.8212 5.42871 19.4791C5.42871 20.1375 5.89024 20.6107 6.47896 20.6107C6.77759 20.6107 6.9973 20.4889 7.14209 20.2949V20.5565H7.59859V19.4791ZM23.025 19.4791C23.025 19.1004 23.2668 18.7893 23.662 18.7893C24.0401 18.7893 24.2945 19.087 24.2945 19.4791C24.2945 19.8713 24.0401 20.169 23.662 20.169C23.2668 20.169 23.025 19.8579 23.025 19.4791ZM24.7253 19.4791V17.5364H24.2683V18.6634C24.1235 18.4693 23.9038 18.3476 23.6052 18.3476C23.0165 18.3476 22.5549 18.8212 22.5549 19.4791C22.5549 20.1375 23.0165 20.6107 23.6052 20.6107C23.9038 20.6107 24.1235 20.4889 24.2683 20.2949V20.5565H24.7253V19.4791ZM13.2651 18.7671C13.5592 18.7671 13.7482 18.9564 13.7965 19.2898H12.707C12.7558 18.9786 12.9398 18.7671 13.2651 18.7671ZM13.2741 18.3476C12.6588 18.3476 12.2284 18.8073 12.2284 19.4791C12.2284 20.1644 12.6764 20.6107 13.3048 20.6107C13.621 20.6107 13.9106 20.5297 14.1655 20.3088L13.9418 19.9616C13.7658 20.1055 13.5416 20.1871 13.331 20.1871C13.0368 20.1871 12.7689 20.0472 12.703 19.6592H14.2621C14.2666 19.6009 14.2711 19.5421 14.2711 19.4791C14.2666 18.8073 13.8624 18.3476 13.2741 18.3476ZM18.7863 19.4791C18.7863 19.1004 19.0281 18.7893 19.4233 18.7893C19.8009 18.7893 20.0558 19.087 20.0558 19.4791C20.0558 19.8713 19.8009 20.169 19.4233 20.169C19.0281 20.169 18.7863 19.8579 18.7863 19.4791ZM20.4861 19.4791V18.4017H20.0296V18.6634C19.8843 18.4693 19.6651 18.3476 19.3665 18.3476C18.7778 18.3476 18.3162 18.8212 18.3162 19.4791C18.3162 20.1375 18.7778 20.6107 19.3665 20.6107C19.6651 20.6107 19.8843 20.4889 20.0296 20.2949V20.5565H20.4861V19.4791ZM16.2082 19.4791C16.2082 20.1329 16.6516 20.6107 17.3283 20.6107C17.6446 20.6107 17.8552 20.5385 18.0835 20.3537L17.8643 19.975C17.6928 20.1014 17.5128 20.169 17.3148 20.169C16.9503 20.1644 16.6823 19.894 16.6823 19.4791C16.6823 19.0643 16.9503 18.7939 17.3148 18.7893C17.5128 18.7893 17.6928 18.8568 17.8643 18.9833L18.0835 18.6045C17.8552 18.4198 17.6446 18.3476 17.3283 18.3476C16.6516 18.3476 16.2082 18.8254 16.2082 19.4791ZM22.0939 18.3476C21.8305 18.3476 21.659 18.474 21.5404 18.6634V18.4017H21.0879V20.5565H21.5449V19.3486C21.5449 18.992 21.6942 18.7939 21.9929 18.7939C22.0854 18.7939 22.1819 18.8073 22.2784 18.8481L22.4192 18.4064C22.3181 18.3656 22.1864 18.3476 22.0939 18.3476ZM9.85644 18.5731C9.63674 18.4245 9.33408 18.3476 9.00026 18.3476C8.46835 18.3476 8.12597 18.6092 8.12597 19.0374C8.12597 19.3888 8.38087 19.6055 8.85044 19.6731L9.06612 19.7046C9.31649 19.7407 9.43463 19.8083 9.43463 19.9301C9.43463 20.0968 9.26772 20.1917 8.95602 20.1917C8.63978 20.1917 8.41154 20.088 8.25769 19.9662L8.04252 20.331C8.29289 20.5204 8.60912 20.6107 8.95149 20.6107C9.55781 20.6107 9.90923 20.3176 9.90923 19.9074C9.90923 19.5287 9.63272 19.3305 9.17572 19.2629L8.96054 19.2309C8.76296 19.2041 8.60459 19.1639 8.60459 19.0194C8.60459 18.8615 8.75391 18.7671 9.00428 18.7671C9.27225 18.7671 9.53167 18.8708 9.65886 18.9518L9.85644 18.5731ZM15.7467 18.3476C15.4832 18.3476 15.3118 18.474 15.1937 18.6634V18.4017H14.7412V20.5565H15.1977V19.3486C15.1977 18.992 15.347 18.7939 15.6456 18.7939C15.7381 18.7939 15.8347 18.8073 15.9312 18.8481L16.072 18.4064C15.9709 18.3656 15.8392 18.3476 15.7467 18.3476ZM11.8509 18.4017H11.1043V17.748H10.6427V18.4017H10.2169V18.83H10.6427V19.813C10.6427 20.313 10.8318 20.6107 11.3717 20.6107C11.5698 20.6107 11.7981 20.5477 11.9429 20.444L11.8111 20.0426C11.6749 20.1236 11.5256 20.1644 11.4069 20.1644C11.1787 20.1644 11.1043 20.0199 11.1043 19.8037V18.83H11.8509V18.4017ZM5.025 20.5565V19.2041C5.025 18.6948 4.70877 18.3522 4.19898 18.3476C3.93102 18.3429 3.6545 18.4286 3.46094 18.7309C3.31615 18.492 3.0879 18.3476 2.76715 18.3476C2.54292 18.3476 2.32372 18.4152 2.15228 18.6675L2.15228 18.4017H1.69528L1.69528 20.5565H2.1563V19.362C2.1563 18.9879 2.35841 18.7893 2.67062 18.7893C2.97378 18.7893 3.12712 18.992 3.12712 19.3574V20.5565H3.58864V19.362C3.58864 18.9879 3.7993 18.7893 4.10246 18.7893C4.41416 18.7893 4.56348 18.992 4.56348 19.3574V20.5565H5.025Z" fill="white"/>
</svg>
