<svg width="173" height="44" viewBox="0 0 173 44" fill="none" xmlns="http://www.w3.org/2000/svg">
<g clip-path="url(#clip0_21_595)">
<path fill-rule="evenodd" clip-rule="evenodd" d="M156.805 24.4097C159.229 24.4097 161.339 25.7578 162.429 27.7475H159.712C158.953 27.0298 157.931 26.5905 156.805 26.5905C155.679 26.5905 154.656 27.0298 153.896 27.7475H151.179C152.271 25.7578 154.38 24.4097 156.805 24.4097Z" fill="#FF0A00"/>
<path fill-rule="evenodd" clip-rule="evenodd" d="M159.674 28.8228H166.853C168.471 28.8228 169.869 29.488 170.816 30.5573C171.764 31.6271 172.262 33.1037 172.081 34.7255C171.899 36.3511 171.073 37.8272 169.886 38.8938C168.699 39.964 167.153 40.6283 165.535 40.6283H159.674H153.934H146.755C145.137 40.6283 143.738 39.9635 142.79 38.8938C141.843 37.8245 141.345 36.3478 141.526 34.7255C141.707 33.1 142.534 31.6238 143.721 30.5573C144.908 29.4875 146.454 28.8228 148.072 28.8228H153.934H159.674ZM143.972 35.6408L143.563 37.7317H145.833L146.242 35.6408H143.972ZM152.661 31.7983H149.266C149.114 31.7983 148.986 31.8024 148.88 31.8099C148.774 31.8182 148.681 31.8298 148.602 31.8465C148.524 31.8628 148.453 31.8887 148.389 31.9249C148.325 31.9606 148.263 32.0038 148.203 32.0511C147.931 32.277 147.74 32.6579 147.631 33.19L147.151 35.6608C147.12 35.8301 147.099 35.9605 147.087 36.0537C147.075 36.1456 147.069 36.2407 147.069 36.339C147.069 36.7417 147.198 37.0841 147.459 37.3684C147.58 37.5053 147.721 37.5999 147.881 37.6524C148.041 37.7048 148.261 37.7312 148.54 37.7312H151.499L151.898 36.4262C151.795 36.4824 151.688 36.5199 151.576 36.5404C151.465 36.5603 151.312 36.57 151.118 36.57H149.856C149.637 36.57 149.482 36.5404 149.388 36.4796C149.294 36.4193 149.247 36.3209 149.247 36.1859C149.247 36.1451 149.251 36.1052 149.257 36.0648C149.263 36.0245 149.274 35.9595 149.293 35.8714L149.738 33.5597C149.762 33.4308 149.787 33.3282 149.816 33.2531C149.842 33.177 149.879 33.1162 149.924 33.0717C149.969 33.0281 150.027 32.9979 150.096 32.9822C150.166 32.9655 150.252 32.9576 150.355 32.9576H151.844C152.002 32.9576 152.136 32.9734 152.249 33.0058C152.361 33.0383 152.459 33.0865 152.543 33.151L152.661 31.7983ZM154.814 31.7983C154.511 31.7983 154.273 31.8122 154.1 31.8405C153.928 31.8688 153.776 31.9235 153.642 32.0042C153.478 32.1007 153.338 32.2492 153.22 32.4533C153.101 32.6551 153.018 32.8843 152.97 33.1418L152.462 35.7461C152.443 35.8584 152.43 35.9493 152.42 36.018C152.411 36.0862 152.406 36.1651 152.406 36.2532C152.406 36.4893 152.44 36.705 152.507 36.9017C152.574 37.0994 152.673 37.2724 152.807 37.4171C152.867 37.4895 152.925 37.5456 152.979 37.586C153.033 37.6264 153.099 37.6565 153.174 37.6765C153.25 37.6969 153.343 37.7108 153.455 37.7196C153.568 37.727 153.711 37.7312 153.887 37.7312H156.575C156.75 37.7312 156.901 37.7247 157.028 37.7127C157.155 37.7011 157.269 37.6806 157.369 37.6524C157.468 37.6241 157.555 37.5879 157.627 37.5438C157.7 37.4993 157.77 37.445 157.837 37.381C157.909 37.3081 157.97 37.233 158.019 37.1606C158.067 37.0887 158.11 37.008 158.15 36.9189C158.189 36.8308 158.226 36.7273 158.258 36.6104C158.292 36.494 158.324 36.3553 158.354 36.1915L158.772 34.0134C158.801 33.8682 158.822 33.743 158.835 33.6386C158.847 33.5333 158.853 33.4368 158.853 33.3482C158.853 33.1608 158.832 32.984 158.79 32.8142C158.747 32.6454 158.69 32.496 158.616 32.3675C158.496 32.1559 158.352 32.0094 158.186 31.9245C158.02 31.8396 157.793 31.7978 157.508 31.7978H154.814V31.7983ZM155.084 33.4758L154.613 35.8969C154.588 36.0338 154.575 36.1201 154.573 36.1567C154.569 36.1924 154.567 36.223 154.567 36.2472C154.567 36.4629 154.707 36.571 154.984 36.571H155.625C155.722 36.571 155.801 36.5654 155.864 36.5538C155.928 36.5413 155.981 36.5176 156.024 36.4805C156.067 36.4448 156.1 36.3942 156.124 36.3297C156.146 36.2676 156.167 36.1785 156.185 36.0662L156.629 33.7778C156.659 33.6502 156.677 33.5588 156.684 33.5059C156.689 33.4544 156.693 33.4034 156.693 33.3552C156.693 33.2206 156.656 33.1199 156.584 33.0555C156.513 32.9905 156.394 32.959 156.231 32.959H155.689C155.586 32.959 155.501 32.9669 155.433 32.9836C155.362 32.9993 155.305 33.0253 155.259 33.0615C155.214 33.0977 155.178 33.1501 155.151 33.2183C155.125 33.2842 155.102 33.3719 155.084 33.4758ZM162.104 31.7983H159.798C159.828 31.8873 159.846 31.9611 159.852 32.0214C159.858 32.0817 159.861 32.1481 159.861 32.2214C159.861 32.3118 159.855 32.4204 159.843 32.5498C159.832 32.6778 159.816 32.7832 159.798 32.8639L159.126 36.352C159.091 36.5366 159.057 36.6921 159.026 36.8173C158.996 36.943 158.966 37.0534 158.935 37.1504C158.906 37.2464 158.868 37.3434 158.827 37.4352C158.784 37.5285 158.736 37.6268 158.681 37.7321H161.242C161.217 37.6431 161.203 37.5707 161.196 37.5146C161.191 37.4584 161.187 37.3893 161.187 37.3091C161.187 37.2209 161.193 37.1073 161.205 36.9704C161.217 36.834 161.23 36.7329 161.241 36.6689L161.841 33.6001C161.889 33.3255 161.951 33.1506 162.027 33.0736C162.103 32.997 162.241 32.9594 162.44 32.9594H162.985C163.094 32.9594 163.182 32.991 163.248 33.0559C163.315 33.1209 163.348 33.2086 163.348 33.3218C163.348 33.338 163.348 33.3538 163.348 33.37C163.348 33.3862 163.345 33.409 163.338 33.4368C163.333 33.4656 163.326 33.5031 163.32 33.5514C163.314 33.6001 163.303 33.6729 163.284 33.769L162.776 36.3548C162.74 36.5404 162.707 36.6958 162.676 36.8201C162.645 36.9458 162.615 37.0562 162.585 37.1527C162.555 37.2492 162.518 37.3443 162.476 37.4362C162.434 37.5294 162.385 37.6278 162.331 37.7331H164.901C164.871 37.644 164.853 37.5716 164.846 37.5155C164.841 37.4594 164.837 37.3902 164.837 37.31C164.837 37.2218 164.843 37.1124 164.856 36.9839C164.867 36.8549 164.882 36.75 164.901 36.6693L165.5 33.5514C165.549 33.3097 165.606 33.151 165.673 33.074C165.739 32.9975 165.857 32.9599 166.027 32.9599H166.562C166.847 32.9599 166.989 33.0884 166.989 33.3459C166.989 33.3946 166.984 33.4493 166.976 33.5101C166.967 33.5709 166.956 33.6409 166.944 33.7216L166.436 36.3553C166.399 36.5329 166.366 36.6837 166.336 36.809C166.305 36.9342 166.273 37.0469 166.24 37.1472C166.207 37.2474 166.17 37.3448 166.132 37.4366C166.092 37.5299 166.046 37.6282 165.99 37.7335H168.557C168.527 37.6445 168.508 37.5721 168.503 37.516C168.496 37.4598 168.493 37.3907 168.493 37.3104C168.493 37.22 168.5 37.1128 168.512 36.988C168.523 36.8637 168.539 36.757 168.557 36.6684L169.059 34.0765C169.077 33.9712 169.093 33.8868 169.105 33.8223C169.117 33.7578 169.126 33.7017 169.132 33.6534C169.138 33.6052 169.144 33.5611 169.146 33.5208C169.149 33.4804 169.151 33.4359 169.151 33.3876C169.151 33.1756 169.12 32.971 169.06 32.7692C168.999 32.5679 168.916 32.3911 168.814 32.2357C168.698 32.0743 168.573 31.962 168.44 31.8975C168.307 31.8331 168.141 31.8011 167.948 31.8011H166.355C166.161 31.8011 166.019 31.8396 165.928 31.9175C165.837 31.994 165.752 32.1476 165.674 32.3749C165.607 32.1476 165.533 31.994 165.451 31.9175C165.369 31.8396 165.226 31.8011 165.02 31.8011H162.823C162.701 31.8011 162.601 31.8071 162.519 31.8196C162.437 31.8312 162.366 31.86 162.305 31.9036C162.245 31.9481 162.191 32.007 162.146 32.0789C162.101 32.1513 162.051 32.2487 161.996 32.3698L162.104 31.7983Z" fill="#FF0000"/>
<path fill-rule="evenodd" clip-rule="evenodd" d="M23.6998 0C34.956 0.95983 43.7939 10.4236 43.7939 21.9592C43.7939 34.1317 33.9525 44 21.8125 44C13.6404 44 6.51066 39.5284 2.72186 32.8926C6.15487 35.8329 10.6099 37.6092 15.4786 37.6092C26.3328 37.6092 35.1319 28.7865 35.1319 17.9032C35.1319 9.96293 30.4478 3.12026 23.6998 0Z" fill="#FF0000"/>
<path fill-rule="evenodd" clip-rule="evenodd" d="M17.1354 1.48242C17.9252 1.48242 18.6965 1.55989 19.4432 1.70603C13.9823 2.31096 9.73505 6.95192 9.73505 12.5889C9.73505 18.6364 14.6245 23.539 20.6559 23.539C22.0712 23.539 23.4236 23.2686 24.6645 22.7773C22.6093 24.4501 19.9892 25.454 17.1354 25.454C10.5332 25.454 5.18146 20.088 5.18146 13.468C5.18146 6.848 10.5336 1.48242 17.1354 1.48242Z" fill="#FF0000"/>
<path fill-rule="evenodd" clip-rule="evenodd" d="M31.9478 17.329C31.995 17.8287 32.0195 18.3343 32.0195 18.846C32.0195 27.7118 24.8518 34.8992 16.0097 34.8992C7.16767 34.8987 0 27.7113 0 18.8456C0 14.225 1.94784 10.0605 5.06391 7.13184C3.86977 9.24819 3.18779 11.6935 3.18779 14.2983C3.18779 22.3485 9.69616 28.8748 17.7249 28.8748C24.7181 28.8748 30.5565 23.924 31.9478 17.329Z" fill="#FF0000"/>
<path fill-rule="evenodd" clip-rule="evenodd" d="M20.4106 3.17285C24.5339 3.17285 27.9683 6.12796 28.7243 10.0406C27.4261 7.65701 24.9031 6.03982 22.0041 6.03982C17.778 6.03982 14.352 9.47507 14.352 13.7124C14.352 15.9457 15.3041 17.9558 16.8226 19.3582C13.9393 18.0041 11.9415 15.0684 11.9415 11.6643C11.9415 6.97459 15.733 3.17285 20.4106 3.17285Z" fill="#FF0000"/>
<path fill-rule="evenodd" clip-rule="evenodd" d="M23.9468 9.68359L25.1433 13.3995L29.0371 13.3921L25.8826 15.681L27.093 19.3923L23.9468 17.0908L20.8007 19.3923L22.011 15.681L18.8561 13.3921L22.7508 13.3995L23.9468 9.68359Z" fill="white"/>
<path fill-rule="evenodd" clip-rule="evenodd" d="M65.4441 18.9148C65.3793 20.6229 64.3707 21.4774 62.4205 21.4774H55.0687C53.6465 21.4774 52.8109 20.9189 52.5583 19.8074C52.4944 19.5272 52.4819 19.2326 52.512 18.9088L52.822 13.1308H50.6604L50.9167 10.5686C52.3538 10.0871 53.3619 9.47331 53.9454 8.72317C54.6 7.87421 55.1599 6.34609 55.6207 4.12814H58.4434L58.1149 10.5686H61.6021C61.4378 12.2776 60.5083 13.1308 58.8154 13.1308H57.9331L57.6592 18.9143H65.4441V18.9148ZM156.114 17.4855L156.137 17.6112C156.335 18.482 157.057 18.9148 158.308 18.9148H169.551C169.535 19.7364 169.219 20.3822 168.607 20.853C168.056 21.2696 167.365 21.4779 166.537 21.4779H158.501C153.828 21.4779 151.134 19.9122 150.424 16.7799C149.969 14.7698 150.407 13.1869 151.744 12.048C152.895 11.0622 154.419 10.5691 156.314 10.5691H158.406C159.623 10.5691 160.744 10.7774 161.763 11.193C163.121 11.7525 163.951 12.5954 164.268 13.7283C164.533 18.6077 159.077 17.4855 156.114 17.4855ZM156.248 15.0374H160.297L160.303 13.1317H156.393L156.248 15.0374ZM84.5893 18.9148H78.7342L79.5009 10.5691H74.2963L73.5001 18.9148H70.57L71.3625 10.5691H66.1228L65.3705 17.9619C65.3312 18.3734 65.352 18.7668 65.4394 19.1509C65.594 19.8352 65.9206 20.3882 66.4245 20.8043C66.9598 21.2543 67.6158 21.4779 68.3991 21.4779H70.9396C72.2249 21.4779 73.1248 20.9741 73.6518 19.9716C73.8785 20.9741 74.6965 21.4779 76.1091 21.4779H82.1321C82.7377 21.4779 83.2689 21.297 83.7232 20.9361C84.2983 20.4759 84.5893 19.8023 84.5893 18.9148ZM101.43 18.9148C101.6 19.6594 101.374 20.2949 100.746 20.8038C100.193 21.2538 99.5604 21.4774 98.846 21.4774H93.3157C91.8481 21.4774 90.9677 20.8038 90.6614 19.4566C90.5827 19.1115 90.5638 18.745 90.5975 18.3507L90.877 13.1312H87.9326L86.836 17.743C86.7921 18.5256 86.3974 18.9148 85.6488 18.9148H84.3788L84.9474 13.1312C84.3339 12.9837 83.781 12.6497 83.3031 12.1297C82.8219 11.6152 82.5045 11.0177 82.3514 10.3441C82.0733 9.11703 82.3699 8.16415 83.2365 7.49056C83.9573 6.93804 84.9099 6.65877 86.081 6.65877H88.4008L88.0903 10.5691H95.8016L95.3542 18.9148H101.43ZM121.22 18.9148H115.218L115.451 14.4961C115.497 14.0247 115.483 13.6132 115.403 13.2639C115.15 12.1459 114.339 11.5883 112.975 11.5883H111.852L114.398 7.74339H111.01L106.678 14.6269L107.339 2.12451H102.214L101.178 21.4779H103.288C104.002 21.4779 104.582 21.3244 105.018 21.0126C105.349 20.7765 105.8 20.2731 106.371 19.5063C108.705 16.4454 110.028 14.6598 110.347 14.1509L110.104 18.6193C110.067 19.0405 110.085 19.4242 110.165 19.7744C110.422 20.9087 111.21 21.4779 112.529 21.4779H118.198C118.887 21.4779 119.501 21.3188 120.033 20.9964C120.797 20.5468 121.193 19.8565 121.22 18.9148ZM132.266 18.9148C132.228 19.8565 131.867 20.5464 131.181 20.9959C130.688 21.3183 130.109 21.4774 129.444 21.4774H123.757C122.382 21.4774 121.549 20.8368 121.256 19.5499C121.175 19.1885 121.155 18.7993 121.193 18.3832L121.613 10.5686H126.788L126.342 18.9143H132.266V18.9148ZM151.469 18.9148H145.146L145.589 10.5691H140.434L139.998 18.9148H137.343L137.908 10.5691H132.723L132.182 18.2848C132.164 18.5975 132.193 18.8986 132.262 19.2001C132.41 19.8514 132.74 20.3942 133.255 20.8266C133.768 21.2585 134.344 21.4779 134.975 21.4779H136.068C135.627 21.9052 135.327 22.5185 135.18 23.3238C135.032 24.1227 135.054 24.9554 135.247 25.8094C135.492 26.888 135.968 27.7708 136.679 28.4546C137.492 29.2377 138.485 29.6269 139.659 29.6269C141.524 29.6269 142.894 28.7831 143.767 27.0908C144.392 25.8758 144.823 24.002 145.068 21.4774H148.733C150.362 21.4779 151.276 20.6229 151.469 18.9148ZM139.877 21.9052L139.543 27.1896C138.88 26.7628 138.466 26.194 138.306 25.487C138.125 24.6933 138.197 23.8986 138.518 23.1039C138.839 22.3046 139.291 21.9052 139.877 21.9052Z" fill="#2B2A28"/>
<path fill-rule="evenodd" clip-rule="evenodd" d="M83.4849 36.8507C83.5969 38.5593 82.6531 39.4129 80.6548 39.4129H74.5041C74.0183 39.4129 73.5181 39.1995 73.0101 38.7773C72.5021 38.3561 72.1819 37.8797 72.0547 37.3429C72.0145 37.1731 71.9955 37.0085 71.9992 36.8503C72.0325 36.0556 72.0899 34.906 72.1708 33.3997L68.1373 37.9395C67.1157 39.0728 66.1455 39.6425 65.2266 39.6425C63.8581 39.6425 63.041 39.0951 62.7814 38.0054C62.6968 37.6491 62.6838 37.2664 62.7329 36.8442L63.1432 33.3997L58.387 38.7235C57.9799 39.1833 57.3946 39.4129 56.6298 39.4129H53.5419L54.1554 28.5036H59.5525L59.2439 33.9638L63.066 29.687C64.0195 28.6135 65.2502 28.0763 66.753 28.0763C67.9869 28.0763 68.7226 28.5639 68.9558 29.5441C69.0224 29.8239 69.0381 30.1301 69.0039 30.4641L68.631 33.6293L72.1681 29.5655C73.0272 28.5746 74.1275 28.0759 75.4655 28.0759C76.7304 28.0759 77.4962 28.646 77.7673 29.7849C77.8584 30.1681 77.8811 30.5898 77.833 31.0611L77.2829 36.8503H83.4849V36.8507ZM103.007 36.8507H96.7066L97.2059 28.5041H88.7672C86.6598 28.5041 85.0279 29.09 83.8824 30.2683C82.6161 31.5659 82.2445 33.3296 82.7771 35.5689C83.0713 36.8066 83.6779 37.8143 84.5995 38.5862C85.517 39.3586 86.5635 39.7418 87.7457 39.7418C89.347 39.7418 90.5379 39.0798 91.3212 37.7484C91.5854 38.8604 92.5324 39.4134 94.1698 39.4134H99.9078C101.896 39.4129 102.928 38.5588 103.007 36.8507ZM91.6598 31.0667L91.3337 36.8442C89.6139 36.8442 88.6409 36.3789 88.4193 35.4479C88.374 35.2563 88.3541 35.0429 88.3605 34.8072L88.5243 31.0667H91.6598ZM120.696 36.8507C120.873 37.5953 120.636 38.2299 119.978 38.7398C119.397 39.1884 118.733 39.4129 117.984 39.4129H112.184C110.645 39.4129 109.721 38.7398 109.4 37.3926C109.319 37.0474 109.298 36.6805 109.334 36.2861L109.626 31.0667H106.538L105.388 35.678C105.341 36.461 104.928 36.8503 104.144 36.8503H102.811L103.408 31.0662C102.763 30.9182 102.184 30.5847 101.683 30.0646C101.178 29.5497 100.845 28.9527 100.685 28.2791C100.393 27.0516 100.704 26.0991 101.613 25.426C102.37 24.873 103.367 24.5938 104.596 24.5938H107.028L106.704 28.5036H114.791L114.322 36.8503H120.696V36.8507ZM134.138 36.8507H125.973L126.261 31.0667H127.186C128.962 31.0667 129.936 30.2126 130.109 28.5041H126.453L126.697 23.9248H123.357C122.979 25.1621 122.552 26.0727 122.078 26.6591C121.466 27.4088 120.409 28.023 118.902 28.5045L118.633 31.0672H120.9L120.575 36.8447C120.543 37.168 120.556 37.464 120.623 37.7437C120.887 38.8548 121.763 39.4138 123.256 39.4138H130.967C133.013 39.4129 134.07 38.5588 134.138 36.8507Z" fill="#2B2A28"/>
<path d="M71.1113 7.67114C72.1365 7.67114 72.9675 6.83785 72.9675 5.80994C72.9675 4.78202 72.1365 3.94873 71.1113 3.94873C70.0861 3.94873 69.2551 4.78202 69.2551 5.80994C69.2551 6.83785 70.0861 7.67114 71.1113 7.67114Z" fill="white"/>
<path d="M76.0535 7.67114C77.0787 7.67114 77.9097 6.83785 77.9097 5.80994C77.9097 4.78202 77.0787 3.94873 76.0535 3.94873C75.0283 3.94873 74.1973 4.78202 74.1973 5.80994C74.1973 6.83785 75.0283 7.67114 76.0535 7.67114Z" fill="white"/>
<path d="M124.344 7.67114C125.369 7.67114 126.2 6.83785 126.2 5.80994C126.2 4.78202 125.369 3.94873 124.344 3.94873C123.319 3.94873 122.488 4.78202 122.488 5.80994C122.488 6.83785 123.319 7.67114 124.344 7.67114Z" fill="white"/>
</g>
<defs>
<clipPath id="clip0_21_595">
<rect width="172.118" height="44" fill="white"/>
</clipPath>
</defs>
</svg>
