<svg width="43" height="14" viewBox="0 0 43 14" fill="none" xmlns="http://www.w3.org/2000/svg">
<g clip-path="url(#clip0_4_499)">
<path d="M18.5276 13.7832H15.0641L17.2304 0.245361H20.6938L18.5276 13.7832Z" fill="#00579F"/>
<path d="M31.0833 0.57636C30.4001 0.302441 29.3165 0 27.9767 0C24.5564 0 22.1478 1.84336 22.133 4.4788C22.1046 6.42323 23.8575 7.50321 25.1685 8.15154C26.5085 8.81404 26.964 9.24645 26.964 9.83698C26.9504 10.7439 25.8812 11.162 24.884 11.162C23.5012 11.162 22.7603 10.9464 21.6343 10.4419L21.1782 10.2256L20.6936 13.2645C21.5059 13.6385 23.0025 13.9705 24.5564 13.985C28.1906 13.985 30.5565 12.1702 30.5846 9.36169C30.5984 7.82058 29.6728 6.63972 27.6773 5.67478C26.4659 5.05535 25.724 4.63768 25.724 4.00389C25.7382 3.42772 26.3515 2.83758 27.719 2.83758C28.8449 2.80868 29.6722 3.08221 30.299 3.35594L30.6122 3.4997L31.0833 0.57636Z" fill="#00579F"/>
<path d="M35.6866 8.98724C35.9719 8.2095 37.0694 5.19945 37.0694 5.19945C37.055 5.22836 37.3541 4.40737 37.5251 3.90336L37.7672 5.06986C37.7672 5.06986 38.4231 8.31038 38.5655 8.98724C38.0242 8.98724 36.3707 8.98724 35.6866 8.98724ZM39.9619 0.245361H37.2829C36.4567 0.245361 35.829 0.489994 35.4726 1.3686L30.3279 13.783H33.9621C33.9621 13.783 34.5605 12.1121 34.6891 11.7523C35.0877 11.7523 38.6231 11.7523 39.136 11.7523C39.2354 12.2276 39.5492 13.783 39.5492 13.783H42.7561L39.9619 0.245361Z" fill="#00579F"/>
<path d="M12.1712 0.245361L8.77923 9.47688L8.40858 7.60462C7.78148 5.44428 5.81476 3.09711 3.62 1.93003L6.7269 13.7689H10.3895L15.8336 0.245361H12.1712Z" fill="#00579F"/>
<path d="M5.62952 0.245361H0.0570092L0 0.518898C4.3469 1.64233 7.22578 4.35032 8.40858 7.6052L7.19718 1.38334C6.99774 0.518706 6.38484 0.273883 5.62952 0.245361Z" fill="#FAA61A"/>
</g>
<defs>
<clipPath id="clip0_4_499">
<rect width="43" height="14" fill="white"/>
</clipPath>
</defs>
</svg>
