<svg width="15" height="15" viewBox="0 0 15 15" fill="none" xmlns="http://www.w3.org/2000/svg">
<path d="M10.378 2.06146C8.12473 -0.170085 4.47556 -0.174199 2.22226 2.05739C-0.0310363 4.28899 -0.0371688 7.91319 2.21608 10.1447C4.18106 12.0908 7.22448 12.3254 9.44187 10.8972L12.7929 14.216L14.4249 12.5997L11.0836 9.29062C12.5943 7.06452 12.3605 4.02485 10.378 2.06146ZM8.75422 8.51831C7.40444 9.85509 5.20811 9.85509 3.85833 8.5183C2.50855 7.18152 2.50855 5.00635 3.85833 3.66957C5.20811 2.33279 7.40444 2.33279 8.75422 3.66957C10.104 5.00635 10.104 7.18152 8.75422 8.51831Z" fill="#555555"/>
</svg>
