<svg width="16" height="16" viewBox="0 0 16 16" fill="none" xmlns="http://www.w3.org/2000/svg">
<path d="M15.787 0.212994C15.6506 0.0766061 15.4656 0 15.2727 0L0.727273 0.000193939C0.325624 0.000193939 0 0.325818 0 0.727467V4.60606C0 5.00771 0.325624 5.33333 0.727273 5.33333H0.969697V15.2727C0.969697 15.6744 1.29532 16 1.69697 16H14.303C14.7047 16 15.0303 15.6744 15.0303 15.2727V5.33333H15.2727C15.6744 5.33333 16 5.00771 16 4.60606V0.727273C16 0.534351 15.9234 0.34943 15.787 0.212994ZM13.5758 14.5455H2.42424V5.33396L13.5758 5.33338V14.5455ZM14.5455 3.87879H1.45455V1.45474L14.5455 1.45455V3.87879Z" fill="#FF0000"/>
<path d="M6.06061 8.24281H9.93939C10.341 8.24281 10.6667 7.91719 10.6667 7.51554C10.6667 7.11389 10.341 6.78827 9.93939 6.78827H6.06061C5.65896 6.78827 5.33333 7.11389 5.33333 7.51554C5.33333 7.91719 5.65896 8.24281 6.06061 8.24281Z" fill="#FF0000"/>
</svg>
