<svg width="21" height="21" viewBox="0 0 21 21" fill="none" xmlns="http://www.w3.org/2000/svg">
<path d="M8.05 11.375C7.4375 11.375 6.7375 11.2 6.2125 10.85C5.075 10.0625 4.375 8.4 4.375 6.3C4.375 4.2875 6.0375 2.625 8.05 2.625C10.0625 2.625 11.725 4.2875 11.725 6.3C11.725 8.4 11.025 10.0625 9.8 10.85C9.3625 11.2 8.6625 11.375 8.05 11.375ZM8.05 4.375C7 4.375 6.125 5.25 6.125 6.3C6.125 7.7875 6.5625 8.925 7.2625 9.3625C7.7875 9.7125 8.4 9.7125 8.925 9.3625C9.625 8.925 10.0625 7.7875 10.0625 6.3C9.975 5.25 9.1 4.375 8.05 4.375Z" fill="#FF0000"/>
<path d="M8.05 18.3748C6.3875 18.3748 0.875 18.1998 0.875 15.3998C0.875 12.4248 3.325 11.6373 4.9875 11.1123C5.1625 11.0248 5.6 10.9373 5.8625 9.88731L7.6125 10.2373C7.2625 11.8998 6.3875 12.5123 5.6 12.7748C3.2375 13.4748 2.625 14.0873 2.625 15.3998C2.625 15.9248 5.1625 16.6248 8.05 16.6248C10.9375 16.6248 13.475 15.9248 13.475 15.3998C13.475 14.0873 12.8625 13.4748 10.5875 12.6873C9.8875 12.4248 8.925 11.8123 8.575 10.1498L10.325 9.7998C10.5 10.7623 11.025 10.9373 11.1125 11.0248C12.775 11.5498 15.225 12.4248 15.225 15.3123C15.225 18.1998 9.7125 18.3748 8.05 18.3748Z" fill="#FF0000"/>
<path d="M14.8752 11.2002C14.3502 11.2002 13.9127 11.0252 13.4752 10.7627C12.6002 10.1502 12.0752 9.0127 12.0752 7.4377C12.0752 5.8627 13.3002 4.6377 14.8752 4.6377C16.4502 4.6377 17.6752 5.8627 17.6752 7.4377C17.6752 9.0127 17.1502 10.2377 16.2752 10.8502C15.8377 11.0252 15.4002 11.2002 14.8752 11.2002ZM14.8752 6.30019C14.2627 6.30019 13.8252 6.73769 13.8252 7.35019C13.8252 8.31269 14.0877 9.0127 14.4377 9.2752C14.7002 9.4502 15.0502 9.4502 15.2252 9.2752C15.6627 9.0127 15.9252 8.31269 15.9252 7.35019C15.9252 6.82519 15.4877 6.30019 14.8752 6.30019Z" fill="#FF0000"/>
<path d="M11.8127 12.7752L10.7627 11.3752C11.2877 10.9377 11.9002 10.6752 12.6877 10.5002C12.7752 10.5002 12.9502 10.4127 13.0377 9.8877L14.7877 10.2377C14.6127 11.2002 14.0877 11.9002 13.2127 12.1627C12.6877 12.2502 12.1627 12.5127 11.8127 12.7752Z" fill="#FF0000"/>
<path d="M14.8752 16.0123C14.8752 16.0123 14.6127 16.0123 14.2627 16.0123L14.3502 14.2623C14.6127 14.2623 14.7877 14.2623 14.8752 14.2623C16.3627 14.2623 18.0252 13.9123 18.3752 13.6498C18.3752 12.9498 18.0252 12.5998 16.5377 12.0748C15.7502 11.8123 15.1377 11.1123 14.9627 10.1498L16.7127 9.7998C16.8002 10.3248 17.0627 10.4123 17.1502 10.4123C18.2877 10.7623 20.2127 11.3748 20.2127 13.6498C20.1252 15.8373 16.4502 16.0123 14.8752 16.0123Z" fill="#FF0000"/>
</svg>
