<svg width="18" height="15" viewBox="0 0 18 15" fill="none" xmlns="http://www.w3.org/2000/svg">
<path d="M7.29955 2.3051C6.65013 1.36448 5.56704 0.75 4.34078 0.75C2.35757 0.75 0.75 2.3574 0.75 4.34154C0.75 4.80841 0.841585 5.25351 1.00535 5.66573L1.01457 5.68895L1.02223 5.71273C1.57104 7.41686 3.12154 9.36392 4.80814 10.9383C5.6402 11.715 6.47821 12.3755 7.19628 12.8466C7.55562 13.0823 7.87536 13.2643 8.14198 13.3893C8.35372 13.4886 8.50474 13.5388 8.59999 13.5607C8.69527 13.5388 8.84632 13.4886 9.05807 13.3893C9.32471 13.2643 9.64444 13.0823 10.0038 12.8466C10.7218 12.3755 11.5598 11.715 12.3918 10.9383C14.0784 9.36395 15.6289 7.41683 16.1781 5.7126L16.1858 5.68879L16.195 5.66555C16.3587 5.25391 16.4503 4.80851 16.4503 4.34154C16.4503 2.3574 14.8427 0.75 12.8595 0.75C11.6342 0.75 10.551 1.36393 9.90191 2.30344L9.90146 2.3041L9.90086 2.30496L9.8939 2.31499C9.88824 2.32303 9.88132 2.33266 9.87314 2.34364C9.85685 2.36554 9.83529 2.39325 9.80862 2.42482C9.75605 2.48704 9.67943 2.56923 9.57957 2.65257C9.38804 2.81242 9.05173 3.02455 8.59997 3.02455C8.14823 3.02455 7.81197 2.81226 7.6206 2.65248C7.52078 2.56914 7.4442 2.48697 7.39165 2.42477C7.36499 2.3932 7.34344 2.3655 7.32716 2.34362C7.31899 2.33264 7.31207 2.32301 7.30641 2.31497L7.29955 2.3051ZM7.29955 2.3051L7.29886 2.30409L7.29578 2.29957L7.29441 2.29755L7.29377 2.2966L7.29346 2.29613C7.29331 2.29591 7.29316 2.29568 7.91674 1.87898L7.29955 2.3051Z" fill="white" stroke="#FF0000" stroke-width="1.5"/>
</svg>
