<svg width="17" height="16" viewBox="0 0 17 16" fill="none" xmlns="http://www.w3.org/2000/svg">
<path d="M15.5929 5.33114H14.4275L11.3811 0L9.95642 0.814116L12.5375 5.33114H3.87599L6.45785 0.814116L5.03233 0L1.98596 5.33114H0.820596C0.694454 5.33128 0.570039 5.36047 0.456995 5.41644C0.343951 5.47241 0.245314 5.55366 0.16873 5.65389C0.0921468 5.75413 0.039674 5.87065 0.0153798 5.99443C-0.00891438 6.11821 -0.00437742 6.24592 0.0286387 6.36766L2.32573 14.7911C2.42121 15.1381 2.62783 15.4442 2.91391 15.6626C3.19999 15.8809 3.54976 15.9994 3.90964 16H12.5046C13.2416 16 13.8932 15.5035 14.0885 14.7895L16.3856 6.36684C16.419 6.24506 16.4238 6.11719 16.3996 5.99325C16.3754 5.8693 16.3229 5.75263 16.2461 5.65235C16.1694 5.55207 16.0705 5.4709 15.9571 5.41517C15.8438 5.35945 15.7191 5.3307 15.5929 5.33114ZM12.5038 14.3586H3.90964L1.89569 6.97251H14.5178L12.5038 14.3586Z" fill="#FF0000"/>
<path d="M5.74468 8.61387H7.38604V12.7173H5.74468V8.61387ZM9.02741 8.61387H10.6688V12.7173H9.02741V8.61387Z" fill="#FF0000"/>
</svg>
