<svg width="19" height="17" viewBox="0 0 19 17" fill="none" xmlns="http://www.w3.org/2000/svg">
<path d="M16.876 0.00152483C16.6405 0.0124798 16.4186 0.0809483 16.2214 0.157633H16.2187C16.0188 0.237057 15.0684 0.636914 13.6251 1.24218C12.1818 1.85018 10.3085 2.63894 8.44887 3.42222C4.73513 4.98604 1.08438 6.52522 1.08438 6.52522L1.1282 6.50879C1.1282 6.50879 0.876239 6.59095 0.613319 6.77171C0.479121 6.85935 0.331228 6.97985 0.202508 7.16882C0.0737866 7.3578 -0.0302861 7.6481 0.00805667 7.94663C0.071048 8.4533 0.399698 8.7573 0.635229 8.92436C0.8735 9.09416 1.10082 9.17359 1.10082 9.17359H1.10629L4.52973 10.3266C4.6831 10.8196 5.57319 13.7446 5.78681 14.4183C5.91279 14.8209 6.03604 15.0728 6.18941 15.2646C6.26335 15.3632 6.35099 15.4453 6.45506 15.511C6.49615 15.5357 6.53997 15.5549 6.58379 15.5713C6.59748 15.5795 6.61117 15.5823 6.62761 15.585L6.592 15.5768C6.60296 15.5795 6.61117 15.5877 6.61939 15.5905C6.64678 15.5987 6.66595 15.6014 6.70155 15.6069C7.24382 15.7712 7.67928 15.4344 7.67928 15.4344L7.70393 15.4152L9.72513 13.5748L13.113 16.1738L13.1896 16.2067C13.8962 16.5162 14.6111 16.3436 14.989 16.0396C15.3697 15.7329 15.5176 15.3412 15.5176 15.3412L15.5422 15.2783L18.1605 1.86661C18.2344 1.53522 18.2536 1.22574 18.1714 0.924482C18.0893 0.62322 17.8784 0.341129 17.6237 0.190498C17.3662 0.0371284 17.1115 -0.00943016 16.876 0.00152483ZM16.8048 1.43937C16.802 1.48319 16.8103 1.47771 16.7911 1.56261V1.57083L14.1975 14.8428C14.1865 14.862 14.1674 14.903 14.1153 14.9441C14.0606 14.9879 14.0167 15.0153 13.7894 14.925L9.6457 11.748L7.14249 14.0294L7.66833 10.6717C7.66833 10.6717 14.1592 4.62179 14.4385 4.36161C14.7179 4.10143 14.6247 4.04665 14.6247 4.04665C14.6439 3.72896 14.203 3.95354 14.203 3.95354L5.66631 9.24205L5.66357 9.22836L1.57188 7.85077V7.84803C1.56914 7.84803 1.56366 7.84529 1.56093 7.84529C1.56366 7.84529 1.58284 7.83708 1.58284 7.83708L1.60475 7.82612L1.62666 7.81791C1.62666 7.81791 5.28014 6.27873 8.99388 4.71491C10.8535 3.93163 12.7268 3.14287 14.1674 2.53487C15.608 1.9296 16.6733 1.48592 16.7336 1.46128C16.7911 1.43937 16.7637 1.43937 16.8048 1.43937Z" fill="#A0A0A0"/>
</svg>
