<svg width="24" height="24" viewBox="0 0 24 24" fill="none" xmlns="http://www.w3.org/2000/svg">
<path d="M18.6495 20.8118C19.0602 21.1384 19.6578 21.0702 19.9844 20.6596C20.311 20.249 20.2429 19.6513 19.8322 19.3248L18.6495 20.8118ZM14.2535 17.2355H13.3035C13.3035 17.4181 13.3561 17.5968 13.455 17.7502L14.2535 17.2355ZM14.2535 15.3832L13.4927 14.8144C13.3699 14.9786 13.3035 15.1782 13.3035 15.3832H14.2535ZM15.1993 12.8921L14.6729 12.1012C14.366 12.3056 14.205 12.6691 14.26 13.0337L15.1993 12.8921ZM15.6154 10.6635L14.72 10.346C14.6162 10.6387 14.662 10.9636 14.8427 11.2162L15.6154 10.6635ZM13.8671 5.36915L13.0716 5.88854C13.2656 6.18556 13.6089 6.34978 13.9618 6.31441L13.8671 5.36915ZM11.7624 4.31426L11.7524 3.36431L11.7514 3.36432L11.7624 4.31426ZM8.39943 10.6635L9.17215 11.2161C9.35169 10.965 9.39808 10.6424 9.29656 10.351L8.39943 10.6635ZM8.81546 12.8921L9.75489 13.0334C9.80974 12.6688 9.64867 12.3054 9.34169 12.1011L8.81546 12.8921ZM9.76128 15.3832H10.7113C10.7113 15.1782 10.645 14.9787 10.5222 14.8145L9.76128 15.3832ZM9.76128 17.2355L10.5596 17.7504C10.6586 17.5969 10.7113 17.4181 10.7113 17.2355H9.76128ZM7.56736 18.6718L7.79698 19.5936L7.79704 19.5936L7.56736 18.6718ZM4.18258 19.3248C3.77195 19.6513 3.70382 20.249 4.0304 20.6596C4.35699 21.0702 4.95462 21.1384 5.36526 20.8118L4.18258 19.3248ZM4.66485 20.1968L4.03074 20.9042L4.031 20.9045L4.66485 20.1968ZM19.3398 20.1867L18.7065 19.4786L18.705 19.4799L19.3398 20.1867ZM19.2409 20.0683C19.8322 19.3248 19.8321 19.3246 19.8319 19.3245C19.8319 19.3245 19.8317 19.3243 19.8316 19.3243C19.8314 19.3241 19.8311 19.3239 19.8308 19.3237C19.8303 19.3232 19.8297 19.3227 19.829 19.3222C19.8276 19.3211 19.8259 19.3197 19.8238 19.3181C19.8198 19.3149 19.8144 19.3108 19.8079 19.3057C19.7948 19.2956 19.7769 19.2818 19.7542 19.2648C19.709 19.2307 19.6451 19.1836 19.5646 19.1268C19.4039 19.0134 19.1751 18.8599 18.8952 18.694C18.343 18.3666 17.5558 17.9688 16.6771 17.7499L16.2178 19.5936C16.8498 19.751 17.4592 20.0515 17.9262 20.3283C18.1557 20.4644 18.3421 20.5895 18.4691 20.6792C18.5324 20.7239 18.5805 20.7594 18.6114 20.7826C18.6268 20.7942 18.6379 20.8027 18.6443 20.8077C18.6475 20.8102 18.6496 20.8119 18.6505 20.8125C18.6509 20.8129 18.6511 20.813 18.6509 20.8129C18.6508 20.8128 18.6507 20.8127 18.6505 20.8125C18.6503 20.8124 18.6502 20.8123 18.6501 20.8122C18.65 20.8121 18.6499 20.812 18.6498 20.812C18.6497 20.8119 18.6495 20.8118 19.2409 20.0683ZM16.6771 17.7499C16.0959 17.6052 15.678 17.3305 15.4065 17.0949C15.2707 16.9771 15.1735 16.8706 15.1139 16.799C15.0842 16.7634 15.0642 16.7369 15.0539 16.7227C15.0487 16.7156 15.046 16.7116 15.0457 16.7111C15.0455 16.7109 15.046 16.7116 15.047 16.7132C15.0476 16.714 15.0482 16.715 15.0491 16.7162C15.0495 16.7169 15.0499 16.7176 15.0504 16.7183C15.0507 16.7187 15.0509 16.7191 15.0512 16.7195C15.0513 16.7197 15.0515 16.72 15.0516 16.7201C15.0518 16.7205 15.052 16.7208 14.2535 17.2355C13.455 17.7502 13.4553 17.7505 13.4555 17.7509C13.4556 17.751 13.4558 17.7513 13.4559 17.7516C13.4562 17.7521 13.4566 17.7525 13.4569 17.753C13.4575 17.7541 13.4582 17.7551 13.459 17.7563C13.4605 17.7586 13.4622 17.7611 13.464 17.7639C13.4678 17.7696 13.4722 17.7762 13.4775 17.7838C13.4879 17.7991 13.5013 17.8183 13.5178 17.8409C13.5507 17.8861 13.5959 17.9454 13.6539 18.015C13.7696 18.1539 13.9376 18.3359 14.1614 18.5301C14.6093 18.9186 15.2884 19.3621 16.2178 19.5936L16.6771 17.7499ZM15.2035 17.2355V15.3832H13.3035V17.2355H15.2035ZM14.2535 15.3832C15.0144 15.952 15.0145 15.9519 15.0146 15.9517C15.0147 15.9517 15.0148 15.9515 15.0149 15.9514C15.0151 15.9511 15.0153 15.9509 15.0155 15.9506C15.0159 15.95 15.0164 15.9493 15.017 15.9486C15.0181 15.947 15.0195 15.9452 15.0212 15.9429C15.0245 15.9384 15.0288 15.9325 15.0341 15.9252C15.0447 15.9107 15.0591 15.8906 15.0768 15.8655C15.1122 15.8154 15.1608 15.7448 15.2178 15.6577C15.3311 15.4846 15.4816 15.2401 15.6283 14.956C15.7735 14.6747 15.9248 14.3357 16.029 13.9759C16.1308 13.6242 16.2054 13.1926 16.1387 12.7504L14.26 13.0337C14.2702 13.1016 14.265 13.2365 14.2039 13.4475C14.1452 13.6504 14.0504 13.8705 13.94 14.0844C13.831 14.2956 13.7162 14.4826 13.6281 14.6172C13.5844 14.6839 13.5483 14.7362 13.5241 14.7705C13.512 14.7876 13.503 14.8002 13.4976 14.8077C13.4948 14.8114 13.493 14.8139 13.4922 14.815C13.4918 14.8156 13.4916 14.8158 13.4917 14.8157C13.4917 14.8157 13.4918 14.8155 13.492 14.8153C13.492 14.8152 13.4921 14.8151 13.4923 14.8149C13.4923 14.8148 13.4924 14.8147 13.4924 14.8146C13.4925 14.8145 13.4927 14.8144 14.2535 15.3832ZM15.1993 12.8921C15.7257 13.6829 15.7261 13.6826 15.7265 13.6824C15.7267 13.6823 15.7271 13.682 15.7273 13.6818C15.7279 13.6815 15.7285 13.6811 15.7291 13.6807C15.7303 13.6799 15.7316 13.679 15.7329 13.6781C15.7357 13.6762 15.7388 13.6741 15.7422 13.6717C15.7491 13.667 15.7573 13.6613 15.7667 13.6545C15.7855 13.6411 15.8094 13.6235 15.8372 13.602C15.8925 13.5592 15.9652 13.4995 16.0464 13.4234C16.2053 13.2748 16.416 13.0463 16.5884 12.7422C16.7631 12.4342 16.9086 12.0297 16.8992 11.5508C16.8896 11.0646 16.7216 10.5771 16.388 10.1107L14.8427 11.2162C14.982 11.4109 14.9985 11.5325 14.9996 11.5881C15.0008 11.6511 14.9832 11.7211 14.9357 11.8049C14.8859 11.8927 14.8152 11.9735 14.7483 12.0361C14.7166 12.0657 14.6903 12.0871 14.6749 12.099C14.6673 12.1049 14.6628 12.1081 14.6621 12.1086C14.6618 12.1088 14.6625 12.1083 14.6642 12.1071C14.6651 12.1065 14.6663 12.1057 14.6677 12.1047C14.6684 12.1043 14.6692 12.1037 14.6701 12.1031C14.6705 12.1028 14.671 12.1025 14.6715 12.1022C14.6717 12.1021 14.6721 12.1018 14.6722 12.1017C14.6726 12.1015 14.6729 12.1012 15.1993 12.8921ZM15.6154 10.6635C16.5108 10.981 16.5109 10.9807 16.511 10.9804C16.511 10.9803 16.5111 10.9799 16.5112 10.9797C16.5114 10.9792 16.5116 10.9786 16.5118 10.9779C16.5123 10.9766 16.5129 10.9748 16.5136 10.9728C16.5151 10.9687 16.517 10.9632 16.5193 10.9564C16.524 10.9429 16.5304 10.924 16.5383 10.9002C16.5542 10.8526 16.5761 10.7852 16.6022 10.7007C16.6542 10.5322 16.7232 10.2944 16.7932 10.0109C16.9311 9.45189 17.0819 8.68004 17.1006 7.89779C17.1187 7.14456 17.0197 6.21793 16.5006 5.48723C15.9189 4.6685 14.969 4.30397 13.7724 4.42388L13.9618 6.31441C14.6448 6.24598 14.8532 6.44907 14.9517 6.58771C15.1128 6.81438 15.216 7.23487 15.2012 7.85231C15.1871 8.44073 15.0701 9.06308 14.9485 9.5556C14.8887 9.79786 14.83 10.0002 14.7867 10.1403C14.7651 10.2102 14.7475 10.2642 14.7358 10.2995C14.7299 10.3172 14.7255 10.3301 14.7228 10.338C14.7214 10.3419 14.7205 10.3446 14.72 10.3459C14.7198 10.3466 14.7197 10.3469 14.7197 10.347C14.7197 10.347 14.7197 10.3469 14.7197 10.3467C14.7198 10.3466 14.7198 10.3465 14.7198 10.3464C14.7199 10.3462 14.72 10.346 15.6154 10.6635ZM13.8671 5.36915C14.6625 4.84976 14.6623 4.8494 14.6621 4.84903C14.662 4.8489 14.6617 4.84852 14.6616 4.84827C14.6612 4.84775 14.6609 4.84722 14.6605 4.84667C14.6598 4.84557 14.659 4.8444 14.6582 4.84317C14.6566 4.8407 14.6547 4.83796 14.6527 4.83496C14.6487 4.82896 14.6438 4.8219 14.6382 4.81387C14.627 4.79782 14.6127 4.77779 14.5952 4.75439C14.5603 4.70766 14.5124 4.64693 14.4513 4.57704C14.3298 4.43804 14.152 4.25796 13.9159 4.07904C13.4405 3.71872 12.7142 3.35419 11.7524 3.36431L11.7724 5.2642C12.2168 5.25953 12.5429 5.42243 12.7683 5.59326C12.8826 5.67991 12.9673 5.76634 13.0207 5.82744C13.0471 5.8576 13.0647 5.88033 13.0735 5.89204C13.0778 5.89785 13.0798 5.9008 13.0796 5.90041C13.0794 5.90021 13.0787 5.89916 13.0774 5.8972C13.0767 5.89622 13.0759 5.89502 13.075 5.89358C13.0745 5.89286 13.074 5.89208 13.0734 5.89124C13.0731 5.89082 13.0729 5.89038 13.0726 5.88993C13.0724 5.88971 13.0722 5.88936 13.0721 5.88925C13.0719 5.88889 13.0716 5.88854 13.8671 5.36915ZM11.7514 3.36432C10.1772 3.38254 9.00432 3.8491 8.20996 4.67481C7.43247 5.48299 7.13777 6.51155 7.0529 7.42509C6.96781 8.341 7.08442 9.22847 7.21269 9.86743C7.27771 10.1913 7.3479 10.4618 7.40259 10.6537C7.42999 10.7498 7.45365 10.8268 7.47107 10.8814C7.47978 10.9087 7.48695 10.9305 7.49225 10.9464C7.49491 10.9544 7.4971 10.9608 7.49878 10.9658C7.49962 10.9682 7.50034 10.9703 7.50093 10.972C7.50122 10.9729 7.50148 10.9736 7.50171 10.9743C7.50182 10.9746 7.50197 10.975 7.50203 10.9752C7.50217 10.9756 7.50229 10.976 8.39943 10.6635C9.29656 10.351 9.29667 10.3513 9.29677 10.3516C9.2968 10.3517 9.29689 10.3519 9.29694 10.3521C9.29704 10.3523 9.2971 10.3525 9.29713 10.3526C9.29719 10.3528 9.29713 10.3526 9.29694 10.3521C9.29656 10.351 9.2957 10.3484 9.29438 10.3445C9.29173 10.3365 9.28728 10.323 9.28132 10.3043C9.26938 10.2669 9.25143 10.2087 9.22981 10.1329C9.18646 9.98078 9.12899 9.7598 9.07552 9.49346C8.96682 8.95198 8.88313 8.2642 8.94475 7.60084C9.0066 6.93511 9.20563 6.38039 9.5792 5.99207C9.93592 5.62127 10.5714 5.27811 11.7734 5.26419L11.7514 3.36432ZM7.6267 10.1108C7.29315 10.5772 7.12517 11.0648 7.1156 11.5509C7.10617 12.0298 7.25172 12.4344 7.42642 12.7424C7.59889 13.0465 7.80958 13.275 7.96846 13.4236C8.0497 13.4996 8.12239 13.5593 8.17777 13.6021C8.20559 13.6237 8.22942 13.6412 8.24825 13.6546C8.25767 13.6614 8.26588 13.6671 8.27274 13.6718C8.27617 13.6742 8.27927 13.6763 8.28202 13.6782C8.2834 13.6791 8.28469 13.68 8.28589 13.6808C8.28649 13.6812 8.28707 13.6816 8.28762 13.6819C8.2879 13.6821 8.2883 13.6824 8.28844 13.6825C8.28884 13.6827 8.28923 13.683 8.81546 12.8921C9.34169 12.1011 9.34207 12.1014 9.34245 12.1016C9.34257 12.1017 9.34294 12.102 9.34317 12.1021C9.34365 12.1024 9.3441 12.1027 9.34454 12.103C9.34541 12.1036 9.34621 12.1041 9.34693 12.1046C9.34838 12.1056 9.34954 12.1064 9.35043 12.107C9.35219 12.1082 9.35287 12.1087 9.35255 12.1085C9.35189 12.108 9.34739 12.1048 9.33982 12.0989C9.32441 12.087 9.29809 12.0657 9.26644 12.0361C9.19952 11.9735 9.12887 11.8928 9.0791 11.805C9.03157 11.7212 9.01399 11.6512 9.01523 11.5883C9.01633 11.5326 9.03279 11.411 9.17215 11.2161L7.6267 10.1108ZM7.87603 12.7507C7.80952 13.1928 7.88417 13.6243 7.98598 13.9759C8.09016 14.3357 8.24143 14.6746 8.38664 14.956C8.53325 15.24 8.68372 15.4845 8.79696 15.6576C8.85398 15.7447 8.90257 15.8153 8.93789 15.8654C8.95558 15.8905 8.97001 15.9105 8.98059 15.9251C8.98589 15.9324 8.99023 15.9383 8.99354 15.9428C8.99519 15.945 8.99659 15.9469 8.99772 15.9484C8.99829 15.9492 8.99879 15.9499 8.99922 15.9505C8.99944 15.9507 8.99963 15.951 8.99982 15.9513C8.99991 15.9514 9.00003 15.9515 9.00008 15.9516C9.0002 15.9518 9.00031 15.9519 9.76128 15.3832C10.5222 14.8145 10.5224 14.8146 10.5225 14.8148C10.5225 14.8148 10.5226 14.8149 10.5226 14.815C10.5228 14.8152 10.5229 14.8153 10.5229 14.8154C10.5231 14.8156 10.5232 14.8158 10.5232 14.8158C10.5233 14.8159 10.5231 14.8157 10.5227 14.8151C10.5219 14.814 10.5201 14.8115 10.5173 14.8078C10.5119 14.8003 10.5029 14.7878 10.4908 14.7706C10.4666 14.7363 10.4305 14.684 10.3869 14.6173C10.2988 14.4827 10.184 14.2957 10.075 14.0845C9.96455 13.8705 9.86978 13.6504 9.81101 13.4475C9.74987 13.2363 9.74466 13.1014 9.75489 13.0334L7.87603 12.7507ZM8.81128 15.3832V17.2355H10.7113V15.3832H8.81128ZM9.76128 17.2355C8.96293 16.7206 8.96314 16.7203 8.96335 16.7199C8.96342 16.7198 8.96362 16.7195 8.96375 16.7193C8.96402 16.7189 8.96427 16.7185 8.96452 16.7181C8.96501 16.7174 8.96546 16.7167 8.96588 16.716C8.9667 16.7148 8.96738 16.7138 8.96791 16.713C8.96896 16.7114 8.96941 16.7107 8.96925 16.711C8.96893 16.7114 8.9662 16.7154 8.96103 16.7225C8.95066 16.7367 8.9307 16.7632 8.90099 16.7989C8.84129 16.8705 8.74406 16.977 8.60815 17.0949C8.33658 17.3305 7.91868 17.6052 7.33767 17.7499L7.79704 19.5936C8.7263 19.362 9.40536 18.9186 9.85318 18.5301C10.077 18.336 10.245 18.1539 10.3607 18.0151C10.4187 17.9455 10.464 17.8863 10.4969 17.8411C10.5134 17.8184 10.5268 17.7993 10.5372 17.784C10.5424 17.7764 10.5469 17.7698 10.5506 17.7641C10.5525 17.7613 10.5542 17.7588 10.5557 17.7565C10.5564 17.7553 10.5571 17.7543 10.5578 17.7533C10.5581 17.7527 10.5584 17.7523 10.5587 17.7518C10.5589 17.7516 10.5591 17.7512 10.5592 17.7511C10.5594 17.7508 10.5596 17.7504 9.76128 17.2355ZM7.33773 17.7499C6.45904 17.9688 5.67175 18.3666 5.11965 18.694C4.83969 18.8599 4.6109 19.0134 4.4502 19.1268C4.36968 19.1836 4.30577 19.2307 4.26056 19.2648C4.23795 19.2818 4.21997 19.2956 4.2069 19.3057C4.20036 19.3108 4.19504 19.3149 4.19098 19.3181C4.18895 19.3197 4.18723 19.3211 4.18583 19.3222C4.18513 19.3227 4.18451 19.3232 4.18397 19.3237C4.1837 19.3239 4.18345 19.3241 4.18322 19.3243C4.1831 19.3243 4.18294 19.3245 4.18288 19.3245C4.18273 19.3246 4.18258 19.3248 4.77392 20.0683C5.36526 20.8118 5.36512 20.8119 5.36499 20.812C5.36495 20.812 5.36482 20.8121 5.36474 20.8122C5.36459 20.8123 5.36446 20.8124 5.36434 20.8125C5.36411 20.8127 5.36396 20.8128 5.36388 20.8129C5.36373 20.813 5.36387 20.8129 5.36431 20.8125C5.3652 20.8119 5.36727 20.8102 5.37049 20.8077C5.37695 20.8027 5.38801 20.7942 5.40342 20.7826C5.43427 20.7594 5.48237 20.7239 5.54571 20.6792C5.67275 20.5895 5.85907 20.4644 6.08863 20.3283C6.55558 20.0515 7.16501 19.751 7.79698 19.5936L7.33773 17.7499ZM5.29896 19.4894C3.24267 17.6462 1.95 14.9726 1.95 12H0.05C0.05 15.5359 1.59011 18.7165 4.03074 20.9042L5.29896 19.4894ZM1.95 12C1.95 6.44775 6.44775 1.95 12 1.95V0.05C5.39841 0.05 0.05 5.39841 0.05 12H1.95ZM12 1.95C17.5475 1.95 22.05 6.44804 22.05 12H23.95C23.95 5.39813 18.5962 0.05 12 0.05V1.95ZM22.05 12C22.05 14.9729 20.7615 17.6407 18.7065 19.4786L19.9731 20.8948C22.415 18.711 23.95 15.5349 23.95 12H22.05ZM18.705 19.4799C16.9257 21.078 14.5743 22.05 12 22.05V23.95C15.0617 23.95 17.8608 22.792 19.9746 20.8935L18.705 19.4799ZM12 22.05C9.42479 22.05 7.07773 21.0827 5.2987 19.4892L4.031 20.9045C6.14509 22.7981 8.93925 23.95 12 23.95V22.05Z" fill="white"/>
</svg>
