<svg width="485" height="353" viewBox="0 0 485 353" fill="none" xmlns="http://www.w3.org/2000/svg">
<path fill-rule="evenodd" clip-rule="evenodd" d="M268.418 0C395.904 10.8199 496 117.502 496 247.54C496 384.757 384.538 496 247.044 496C154.488 496 73.7384 445.593 30.8274 370.789C69.7088 403.934 120.166 423.958 175.307 423.958C298.239 423.958 397.895 324.503 397.895 201.818C397.895 112.309 344.845 35.1738 268.418 0Z" fill="#FAFAFA"/>
<path fill-rule="evenodd" clip-rule="evenodd" d="M194.072 16.7083C203.016 16.7083 211.752 17.5817 220.209 19.229C158.36 26.0483 110.257 78.3645 110.257 141.909C110.257 210.081 165.634 265.346 233.943 265.346C249.973 265.346 265.29 262.297 279.343 256.759C256.067 275.617 226.392 286.934 194.072 286.934C119.296 286.934 58.6837 226.444 58.6837 151.818C58.6837 77.1931 119.301 16.7083 194.072 16.7083Z" fill="#FAFAFA"/>
<path fill-rule="evenodd" clip-rule="evenodd" d="M361.833 195.344C362.367 200.976 362.645 206.676 362.645 212.444C362.645 312.386 281.466 393.407 181.323 393.407C81.1793 393.402 0 312.381 0 212.439C0 160.353 22.0607 113.408 57.3527 80.3935C43.828 104.251 36.1042 131.815 36.1042 161.179C36.1042 251.927 109.816 325.496 200.748 325.496C279.951 325.496 346.076 269.687 361.833 195.344Z" fill="#FAFAFA"/>
<path fill-rule="evenodd" clip-rule="evenodd" d="M231.166 35.7648C277.866 35.7648 316.763 69.0769 325.325 113.183C310.622 86.3134 282.047 68.0833 249.213 68.0833C201.35 68.0833 162.547 106.808 162.547 154.574C162.547 179.749 173.331 202.409 190.529 218.218C157.873 202.953 135.247 169.86 135.247 131.486C135.247 78.6208 178.189 35.7648 231.166 35.7648Z" fill="#FAFAFA"/>
<path fill-rule="evenodd" clip-rule="evenodd" d="M271.216 109.161L284.767 151.05L328.868 150.966L293.141 176.769L306.849 218.605L271.216 192.661L235.584 218.605L249.292 176.769L213.56 150.966L257.671 151.05L271.216 109.161Z" fill="#FAFAFA"/>
</svg>
