<svg width="16" height="16" viewBox="0 0 16 16" fill="none" xmlns="http://www.w3.org/2000/svg">
<path d="M15.1056 5.16455H13.9766L11.0255 0L9.64528 0.788675L12.1457 5.16455H3.75487L6.25605 0.788675L4.87507 0L1.9239 5.16455H0.794952C0.672753 5.16468 0.552226 5.19296 0.442714 5.24718C0.333202 5.3014 0.237648 5.38011 0.163457 5.47721C0.0892672 5.57431 0.0384342 5.68719 0.0148992 5.8071C-0.00863581 5.92702 -0.00424063 6.05074 0.0277438 6.16868L2.25305 14.3289C2.34555 14.6651 2.54571 14.9616 2.82285 15.1731C3.09999 15.3846 3.43883 15.4995 3.78746 15.5H12.1139C12.8278 15.5 13.4591 15.019 13.6483 14.3273L15.8736 6.16788C15.9059 6.0499 15.9106 5.92603 15.8871 5.80596C15.8637 5.68588 15.8128 5.57286 15.7385 5.47571C15.6641 5.37857 15.5683 5.29993 15.4585 5.24595C15.3487 5.19197 15.2279 5.16411 15.1056 5.16455ZM12.1131 13.9099H3.78746L1.83645 6.75462H14.0641L12.1131 13.9099Z" fill="#37C155"/>
<path d="M5.56516 8.34469H7.15523V12.3199H5.56516V8.34469ZM8.7453 8.34469H10.3354V12.3199H8.7453V8.34469Z" fill="#37C155"/>
</svg>
