<svg width="9" height="8" viewBox="0 0 9 8" fill="none" xmlns="http://www.w3.org/2000/svg">
<path d="M5.39754 4.08108L8.12579 1.45188C8.24526 1.33647 8.31238 1.17995 8.31238 1.01674C8.31238 0.853535 8.24526 0.697012 8.12579 0.581607C8.00631 0.466201 7.84427 0.401367 7.67531 0.401367C7.50635 0.401367 7.34431 0.466201 7.22483 0.581607L4.50292 3.21694L1.78102 0.581607C1.66154 0.466201 1.4995 0.401367 1.33054 0.401367C1.16158 0.401367 0.999534 0.466201 0.88006 0.581607C0.760586 0.697012 0.693466 0.853535 0.693466 1.01674C0.693466 1.17995 0.760586 1.33647 0.88006 1.45188L3.60831 4.08108L0.88006 6.71029C0.820592 6.76726 0.77339 6.83504 0.741179 6.90973C0.708967 6.98441 0.692383 7.06452 0.692383 7.14542C0.692383 7.22633 0.708967 7.30643 0.741179 7.38112C0.77339 7.4558 0.820592 7.52359 0.88006 7.58056C0.939043 7.638 1.00922 7.6836 1.08653 7.71471C1.16385 7.74583 1.24678 7.76185 1.33054 7.76185C1.4143 7.76185 1.49723 7.74583 1.57454 7.71471C1.65186 7.6836 1.72203 7.638 1.78102 7.58056L4.50292 4.94523L7.22483 7.58056C7.28381 7.638 7.35399 7.6836 7.4313 7.71471C7.50862 7.74583 7.59155 7.76185 7.67531 7.76185C7.75907 7.76185 7.842 7.74583 7.91931 7.71471C7.99663 7.6836 8.0668 7.638 8.12579 7.58056C8.18526 7.52359 8.23246 7.4558 8.26467 7.38112C8.29688 7.30643 8.31346 7.22633 8.31346 7.14542C8.31346 7.06452 8.29688 6.98441 8.26467 6.90973C8.23246 6.83504 8.18526 6.76726 8.12579 6.71029L5.39754 4.08108Z" fill="#A0A0A0"/>
</svg>
