<svg width="14" height="15" viewBox="0 0 14 15" fill="none" xmlns="http://www.w3.org/2000/svg">
<path d="M10.9297 10.5111H10.2711C10.5896 11.394 10.8994 12.6913 10.4826 13.7088C10.2368 14.3087 9.76949 14.7354 9.13117 14.9423C9.01333 14.9807 8.89079 15 8.76734 15C7.93666 15 7.18499 14.1891 6.08655 12.1073C5.59299 11.1712 4.88262 10.3829 4.38232 9.9578C4.17 9.77735 4.00032 9.5933 3.86273 9.41217C3.48341 9.97598 2.8397 10.3474 2.1107 10.3474C0.946941 10.3474 0 9.4005 0 8.23675V2.1107C0 0.946717 0.946941 0 2.1107 0C2.87516 0 3.54401 0.410065 3.91435 1.02034C4.41083 0.408045 5.16811 0.0154877 6.01607 0.0154877H11.1835C13.3173 0.0154877 13.6358 1.39269 13.6358 2.21349V7.80446C13.636 9.29681 12.422 10.5111 10.9297 10.5111ZM2.87471 2.1107C2.87471 1.68941 2.53198 1.34668 2.11092 1.34668C1.68964 1.34668 1.34691 1.68941 1.34691 2.1107V8.23675C1.34691 8.65803 1.68964 9.00076 2.11092 9.00076C2.53198 9.00076 2.87471 8.65803 2.87471 8.23675V2.1107ZM12.2894 2.21349C12.2894 1.715 12.2099 1.36217 11.1837 1.36217H6.0163C5.26664 1.36217 4.6566 1.97199 4.6566 2.72164V7.80446L4.65839 7.82578L4.65368 7.86529C4.65233 7.88683 4.62989 8.40082 5.2543 8.93141C5.85043 9.43821 6.69502 10.3735 7.27769 11.4791C8.2051 13.2365 8.64771 13.5784 8.76779 13.643C9.00099 13.5559 9.14665 13.417 9.23621 13.1984C9.52642 12.49 9.16192 11.1281 8.65197 10.1488L8.13956 9.16461H10.9294C11.6793 9.16461 12.2894 8.55456 12.2894 7.80469V2.21349Z" fill="#B3B3B3"/>
</svg>
