<svg width="14" height="15" viewBox="0 0 14 15" fill="none" xmlns="http://www.w3.org/2000/svg">
<path d="M10.9297 4.48893H10.2711C10.5896 3.60596 10.8994 2.30866 10.4826 1.29124C10.2368 0.691296 9.76949 0.264623 9.13117 0.0576828C9.01333 0.0193024 8.89079 0 8.76734 0C7.93666 0 7.18499 0.810926 6.08655 2.89267C5.59299 3.82884 4.88262 4.61709 4.38232 5.0422C4.17 5.22265 4.00032 5.4067 3.86273 5.58783C3.48341 5.02402 2.8397 4.65256 2.1107 4.65256C0.946941 4.65256 0 5.5995 0 6.76325V12.8893C0 14.0533 0.946941 15 2.1107 15C2.87516 15 3.54401 14.5899 3.91435 13.9797C4.41083 14.592 5.16811 14.9845 6.01607 14.9845H11.1835C13.3173 14.9845 13.6358 13.6073 13.6358 12.7865V7.19554C13.636 5.70319 12.422 4.48893 10.9297 4.48893ZM2.87471 12.8893C2.87471 13.3106 2.53198 13.6533 2.11092 13.6533C1.68964 13.6533 1.34691 13.3106 1.34691 12.8893V6.76325C1.34691 6.34197 1.68964 5.99924 2.11092 5.99924C2.53198 5.99924 2.87471 6.34197 2.87471 6.76325V12.8893ZM12.2894 12.7865C12.2894 13.285 12.2099 13.6378 11.1837 13.6378H6.0163C5.26664 13.6378 4.6566 13.028 4.6566 12.2784V7.19554L4.65839 7.17422L4.65368 7.13471C4.65233 7.11317 4.62989 6.59918 5.2543 6.06859C5.85043 5.56179 6.69502 4.62652 7.27769 3.5209C8.2051 1.76348 8.64771 1.42165 8.76779 1.357C9.00099 1.44409 9.14665 1.58302 9.23621 1.80163C9.52642 2.50999 9.16192 3.87193 8.65197 4.85119L8.13956 5.83539H10.9294C11.6793 5.83539 12.2894 6.44544 12.2894 7.19531V12.7865Z" fill="#B3B3B3"/>
</svg>
