<svg width="173" height="44" viewBox="0 0 173 44" fill="none" xmlns="http://www.w3.org/2000/svg">
<path fill-rule="evenodd" clip-rule="evenodd" d="M156.805 24.4095C159.229 24.4095 161.339 25.7577 162.429 27.7474H159.712C158.953 27.0297 157.931 26.5904 156.805 26.5904C155.679 26.5904 154.656 27.0297 153.896 27.7474H151.179C152.271 25.7577 154.38 24.4095 156.805 24.4095Z" fill="#FF0A00"/>
<path fill-rule="evenodd" clip-rule="evenodd" d="M159.674 28.8227H166.853C168.471 28.8227 169.869 29.4879 170.816 30.5573C171.764 31.627 172.262 33.1037 172.081 34.7255C171.899 36.351 171.073 37.8272 169.886 38.8937C168.699 39.964 167.153 40.6283 165.535 40.6283H159.674H153.934H146.755C145.137 40.6283 143.738 39.9635 142.79 38.8937C141.843 37.8244 141.345 36.3478 141.526 34.7255C141.707 33.0999 142.534 31.6238 143.721 30.5573C144.908 29.4875 146.454 28.8227 148.072 28.8227H153.934H159.674ZM143.972 35.6408L143.563 37.7316H145.833L146.242 35.6408H143.972ZM152.661 31.7982H149.266C149.114 31.7982 148.986 31.8024 148.88 31.8098C148.774 31.8182 148.681 31.8298 148.602 31.8465C148.524 31.8627 148.453 31.8887 148.389 31.9249C148.325 31.9606 148.263 32.0037 148.203 32.051C147.931 32.277 147.74 32.6578 147.631 33.1899L147.151 35.6607C147.12 35.8301 147.099 35.9604 147.087 36.0537C147.075 36.1455 147.069 36.2406 147.069 36.339C147.069 36.7416 147.198 37.084 147.459 37.3684C147.58 37.5052 147.721 37.5999 147.881 37.6523C148.041 37.7047 148.261 37.7312 148.54 37.7312H151.499L151.898 36.4262C151.795 36.4823 151.688 36.5199 151.576 36.5403C151.465 36.5602 151.312 36.57 151.118 36.57H149.856C149.637 36.57 149.482 36.5403 149.388 36.4795C149.294 36.4192 149.247 36.3209 149.247 36.1859C149.247 36.145 149.251 36.1051 149.257 36.0648C149.263 36.0244 149.274 35.9595 149.293 35.8713L149.738 33.5597C149.762 33.4307 149.787 33.3282 149.816 33.253C149.842 33.177 149.879 33.1162 149.924 33.0716C149.969 33.028 150.027 32.9979 150.096 32.9821C150.166 32.9654 150.252 32.9575 150.355 32.9575H151.844C152.002 32.9575 152.136 32.9733 152.249 33.0058C152.361 33.0382 152.459 33.0865 152.543 33.151L152.661 31.7982ZM154.814 31.7982C154.511 31.7982 154.273 31.8121 154.1 31.8404C153.928 31.8687 153.776 31.9235 153.642 32.0042C153.478 32.1007 153.338 32.2491 153.22 32.4533C153.101 32.6551 153.018 32.8842 152.97 33.1417L152.462 35.7461C152.443 35.8584 152.43 35.9493 152.42 36.0179C152.411 36.0861 152.406 36.165 152.406 36.2531C152.406 36.4893 152.44 36.705 152.507 36.9017C152.574 37.0993 152.673 37.2723 152.807 37.4171C152.867 37.4895 152.925 37.5456 152.979 37.5859C153.033 37.6263 153.099 37.6565 153.174 37.6764C153.25 37.6968 153.343 37.7107 153.455 37.7196C153.568 37.727 153.711 37.7312 153.887 37.7312H156.575C156.75 37.7312 156.901 37.7247 157.028 37.7126C157.155 37.701 157.269 37.6806 157.369 37.6523C157.468 37.624 157.555 37.5878 157.627 37.5437C157.7 37.4992 157.77 37.4449 157.837 37.3809C157.909 37.3081 157.97 37.2329 158.019 37.1605C158.067 37.0886 158.11 37.0079 158.15 36.9188C158.189 36.8307 158.226 36.7273 158.258 36.6103C158.292 36.4939 158.324 36.3552 158.354 36.1914L158.772 34.0134C158.801 33.8682 158.822 33.7429 158.835 33.6385C158.847 33.5332 158.853 33.4367 158.853 33.3481C158.853 33.1607 158.832 32.984 158.79 32.8142C158.747 32.6453 158.69 32.4959 158.616 32.3674C158.496 32.1559 158.352 32.0093 158.186 31.9244C158.02 31.8395 157.793 31.7977 157.508 31.7977H154.814V31.7982ZM155.084 33.4757L154.613 35.8969C154.588 36.0337 154.575 36.12 154.573 36.1566C154.569 36.1924 154.567 36.223 154.567 36.2471C154.567 36.4628 154.707 36.5709 154.984 36.5709H155.625C155.722 36.5709 155.801 36.5653 155.864 36.5538C155.928 36.5412 155.981 36.5176 156.024 36.4805C156.067 36.4447 156.1 36.3942 156.124 36.3297C156.146 36.2675 156.167 36.1784 156.185 36.0662L156.629 33.7777C156.659 33.6501 156.677 33.5587 156.684 33.5059C156.689 33.4544 156.693 33.4033 156.693 33.3551C156.693 33.2206 156.656 33.1199 156.584 33.0554C156.513 32.9905 156.394 32.9589 156.231 32.9589H155.689C155.586 32.9589 155.501 32.9668 155.433 32.9835C155.362 32.9993 155.305 33.0253 155.259 33.0614C155.214 33.0976 155.178 33.15 155.151 33.2182C155.125 33.2841 155.102 33.3718 155.084 33.4757ZM162.104 31.7982H159.798C159.828 31.8873 159.846 31.961 159.852 32.0214C159.858 32.0817 159.861 32.148 159.861 32.2213C159.861 32.3118 159.855 32.4203 159.843 32.5497C159.832 32.6778 159.816 32.7831 159.798 32.8638L159.126 36.352C159.091 36.5366 159.057 36.692 159.026 36.8173C158.996 36.943 158.966 37.0534 158.935 37.1503C158.906 37.2464 158.868 37.3433 158.827 37.4352C158.784 37.5284 158.736 37.6268 158.681 37.7321H161.242C161.217 37.643 161.203 37.5706 161.196 37.5145C161.191 37.4584 161.187 37.3893 161.187 37.309C161.187 37.2209 161.193 37.1072 161.205 36.9703C161.217 36.834 161.23 36.7328 161.241 36.6688L161.841 33.6C161.889 33.3254 161.951 33.1505 162.027 33.0735C162.103 32.997 162.241 32.9594 162.44 32.9594H162.985C163.094 32.9594 163.182 32.9909 163.248 33.0559C163.315 33.1208 163.348 33.2085 163.348 33.3217C163.348 33.3379 163.348 33.3537 163.348 33.3699C163.348 33.3862 163.345 33.4089 163.338 33.4367C163.333 33.4655 163.326 33.5031 163.32 33.5513C163.314 33.6 163.303 33.6729 163.284 33.7689L162.776 36.3547C162.74 36.5403 162.707 36.6957 162.676 36.82C162.645 36.9458 162.615 37.0562 162.585 37.1527C162.555 37.2492 162.518 37.3443 162.476 37.4361C162.434 37.5294 162.385 37.6277 162.331 37.733H164.901C164.871 37.6439 164.853 37.5716 164.846 37.5154C164.841 37.4593 164.837 37.3902 164.837 37.3099C164.837 37.2218 164.843 37.1123 164.856 36.9838C164.867 36.8548 164.882 36.75 164.901 36.6693L165.5 33.5513C165.549 33.3096 165.606 33.151 165.673 33.074C165.739 32.9974 165.857 32.9598 166.027 32.9598H166.562C166.847 32.9598 166.989 33.0883 166.989 33.3458C166.989 33.3945 166.984 33.4493 166.976 33.51C166.967 33.5708 166.956 33.6409 166.944 33.7216L166.436 36.3552C166.399 36.5329 166.366 36.6836 166.336 36.8089C166.305 36.9342 166.273 37.0469 166.24 37.1471C166.207 37.2473 166.17 37.3447 166.132 37.4366C166.092 37.5298 166.046 37.6282 165.99 37.7335H168.557C168.527 37.6444 168.508 37.572 168.503 37.5159C168.496 37.4598 168.493 37.3906 168.493 37.3104C168.493 37.2199 168.5 37.1128 168.512 36.988C168.523 36.8636 168.539 36.7569 168.557 36.6683L169.059 34.0765C169.077 33.9712 169.093 33.8867 169.105 33.8222C169.117 33.7578 169.126 33.7016 169.132 33.6534C169.138 33.6051 169.144 33.5611 169.146 33.5207C169.149 33.4803 169.151 33.4358 169.151 33.3876C169.151 33.1756 169.12 32.971 169.06 32.7692C168.999 32.5678 168.916 32.3911 168.814 32.2357C168.698 32.0742 168.573 31.962 168.44 31.8975C168.307 31.833 168.141 31.801 167.948 31.801H166.355C166.161 31.801 166.019 31.8395 165.928 31.9174C165.837 31.994 165.752 32.1475 165.674 32.3749C165.607 32.1475 165.533 31.994 165.451 31.9174C165.369 31.8395 165.226 31.801 165.02 31.801H162.823C162.701 31.801 162.601 31.807 162.519 31.8195C162.437 31.8311 162.366 31.8599 162.305 31.9035C162.245 31.9481 162.191 32.007 162.146 32.0789C162.101 32.1512 162.051 32.2487 161.996 32.3697L162.104 31.7982Z" fill="#FF0000"/>
<path fill-rule="evenodd" clip-rule="evenodd" d="M23.6998 0C34.956 0.95983 43.7939 10.4236 43.7939 21.9592C43.7939 34.1317 33.9525 44 21.8125 44C13.6404 44 6.51066 39.5284 2.72186 32.8926C6.15487 35.8329 10.6099 37.6092 15.4786 37.6092C26.3328 37.6092 35.1319 28.7865 35.1319 17.9032C35.1319 9.96293 30.4478 3.12026 23.6998 0Z" fill="#FF0000"/>
<path fill-rule="evenodd" clip-rule="evenodd" d="M17.1354 1.48218C17.9252 1.48218 18.6965 1.55965 19.4432 1.70578C13.9823 2.31072 9.73505 6.95167 9.73505 12.5886C9.73505 18.6362 14.6245 23.5388 20.6559 23.5388C22.0712 23.5388 23.4236 23.2683 24.6645 22.777C22.6093 24.4499 19.9892 25.4538 17.1354 25.4538C10.5332 25.4538 5.18146 20.0877 5.18146 13.4678C5.18146 6.84776 10.5336 1.48218 17.1354 1.48218Z" fill="#FF0000"/>
<path fill-rule="evenodd" clip-rule="evenodd" d="M31.9478 17.3289C31.995 17.8285 32.0195 18.3342 32.0195 18.8459C32.0195 27.7117 24.8518 34.899 16.0097 34.899C7.16767 34.8986 0 27.7112 0 18.8454C0 14.2249 1.94784 10.0604 5.06391 7.13171C3.86977 9.24807 3.18779 11.6933 3.18779 14.2982C3.18779 22.3484 9.69616 28.8747 17.7249 28.8747C24.7181 28.8747 30.5565 23.9239 31.9478 17.3289Z" fill="#FF0000"/>
<path fill-rule="evenodd" clip-rule="evenodd" d="M20.4106 3.17267C24.5339 3.17267 27.9683 6.12777 28.7243 10.0404C27.4261 7.65682 24.9031 6.03963 22.0041 6.03963C17.778 6.03963 14.352 9.47489 14.352 13.7122C14.352 15.9455 15.3041 17.9556 16.8226 19.358C13.9393 18.0039 11.9415 15.0682 11.9415 11.6641C11.9415 6.97441 15.733 3.17267 20.4106 3.17267Z" fill="#FF0000"/>
<path fill-rule="evenodd" clip-rule="evenodd" d="M23.9468 9.68365L25.1433 13.3996L29.0371 13.3922L25.8826 15.6811L27.093 19.3924L23.9468 17.0909L20.8007 19.3924L22.011 15.6811L18.8561 13.3922L22.7508 13.3996L23.9468 9.68365Z" fill="white"/>
<path fill-rule="evenodd" clip-rule="evenodd" d="M65.4441 18.915C65.3793 20.6231 64.3707 21.4776 62.4205 21.4776H55.0687C53.6465 21.4776 52.8109 20.9191 52.5583 19.8075C52.4944 19.5273 52.4819 19.2328 52.512 18.909L52.822 13.131H50.6604L50.9167 10.5688C52.3538 10.0872 53.3619 9.47349 53.9454 8.72335C54.6 7.87439 55.1599 6.34628 55.6207 4.12832H58.4434L58.1149 10.5688H61.6021C61.4378 12.2778 60.5083 13.131 58.8154 13.131H57.9331L57.6592 18.9145H65.4441V18.915ZM156.114 17.4857L156.137 17.6114C156.335 18.4822 157.057 18.915 158.308 18.915H169.551C169.535 19.7366 169.219 20.3823 168.607 20.8532C168.056 21.2698 167.365 21.4781 166.537 21.4781H158.501C153.828 21.4781 151.134 19.9124 150.424 16.7801C149.969 14.77 150.407 13.1871 151.744 12.0482C152.895 11.0624 154.419 10.5692 156.314 10.5692H158.406C159.623 10.5692 160.744 10.7775 161.763 11.1932C163.121 11.7527 163.951 12.5956 164.268 13.7285C164.533 18.6079 159.077 17.4857 156.114 17.4857ZM156.248 15.0376H160.297L160.303 13.1319H156.393L156.248 15.0376ZM84.5893 18.915H78.7342L79.5009 10.5692H74.2963L73.5001 18.915H70.57L71.3625 10.5692H66.1228L65.3705 17.9621C65.3312 18.3736 65.352 18.767 65.4394 19.1511C65.594 19.8354 65.9206 20.3884 66.4245 20.8045C66.9598 21.2545 67.6158 21.4781 68.3991 21.4781H70.9396C72.2249 21.4781 73.1248 20.9743 73.6518 19.9718C73.8785 20.9743 74.6965 21.4781 76.1091 21.4781H82.1321C82.7377 21.4781 83.2689 21.2972 83.7232 20.9362C84.2983 20.476 84.5893 19.8024 84.5893 18.915ZM101.43 18.915C101.6 19.6596 101.374 20.2951 100.746 20.804C100.193 21.254 99.5604 21.4776 98.846 21.4776H93.3157C91.8481 21.4776 90.9677 20.804 90.6614 19.4568C90.5827 19.1117 90.5638 18.7452 90.5975 18.3509L90.877 13.1314H87.9326L86.836 17.7431C86.7921 18.5258 86.3974 18.915 85.6488 18.915H84.3788L84.9474 13.1314C84.3339 12.9839 83.781 12.6499 83.3031 12.1298C82.8219 11.6154 82.5045 11.0178 82.3514 10.3443C82.0733 9.11721 82.3699 8.16434 83.2365 7.49074C83.9573 6.93822 84.9099 6.65895 86.081 6.65895H88.4008L88.0903 10.5692H95.8016L95.3542 18.915H101.43ZM121.22 18.915H115.218L115.451 14.4962C115.497 14.0249 115.483 13.6134 115.403 13.2641C115.15 12.1461 114.339 11.5885 112.975 11.5885H111.852L114.398 7.74357H111.01L106.678 14.6271L107.339 2.12469H102.214L101.178 21.4781H103.288C104.002 21.4781 104.582 21.3245 105.018 21.0128C105.349 20.7767 105.8 20.2733 106.371 19.5065C108.705 16.4456 110.028 14.66 110.347 14.1511L110.104 18.6195C110.067 19.0407 110.085 19.4244 110.165 19.7746C110.422 20.9089 111.21 21.4781 112.529 21.4781H118.198C118.887 21.4781 119.501 21.319 120.033 20.9966C120.797 20.547 121.193 19.8567 121.22 18.915ZM132.266 18.915C132.228 19.8567 131.867 20.5466 131.181 20.9961C130.688 21.3185 130.109 21.4776 129.444 21.4776H123.757C122.382 21.4776 121.549 20.837 121.256 19.5501C121.175 19.1887 121.155 18.7995 121.193 18.3833L121.613 10.5688H126.788L126.342 18.9145H132.266V18.915ZM151.469 18.915H145.146L145.589 10.5692H140.434L139.998 18.915H137.343L137.908 10.5692H132.723L132.182 18.285C132.164 18.5977 132.193 18.8987 132.262 19.2003C132.41 19.8516 132.74 20.3944 133.255 20.8268C133.768 21.2587 134.344 21.4781 134.975 21.4781H136.068C135.627 21.9054 135.327 22.5186 135.18 23.324C135.032 24.1228 135.054 24.9556 135.247 25.8096C135.492 26.8882 135.968 27.771 136.679 28.4548C137.492 29.2379 138.485 29.6271 139.659 29.6271C141.524 29.6271 142.894 28.7833 143.767 27.0909C144.392 25.876 144.823 24.0022 145.068 21.4776H148.733C150.362 21.4781 151.276 20.6231 151.469 18.915ZM139.877 21.9053L139.543 27.1897C138.88 26.763 138.466 26.1942 138.306 25.4872C138.125 24.6934 138.197 23.8988 138.518 23.1041C138.839 22.3048 139.291 21.9053 139.877 21.9053Z" fill="white"/>
<path fill-rule="evenodd" clip-rule="evenodd" d="M83.4849 36.8511C83.5969 38.5597 82.6531 39.4133 80.6548 39.4133H74.5041C74.0183 39.4133 73.5181 39.1999 73.0101 38.7778C72.5021 38.3565 72.1819 37.8801 72.0547 37.3434C72.0145 37.1736 71.9955 37.0089 71.9992 36.8507C72.0325 36.056 72.0899 34.9064 72.1708 33.4001L68.1373 37.9399C67.1157 39.0733 66.1455 39.643 65.2266 39.643C63.8581 39.643 63.041 39.0955 62.7814 38.0058C62.6968 37.6495 62.6838 37.2668 62.7329 36.8447L63.1432 33.4001L58.387 38.724C57.9799 39.1837 57.3946 39.4133 56.6298 39.4133H53.5419L54.1554 28.504H59.5525L59.2439 33.9642L63.066 29.6875C64.0195 28.614 65.2502 28.0768 66.753 28.0768C67.9869 28.0768 68.7226 28.5643 68.9558 29.5446C69.0224 29.8243 69.0381 30.1305 69.0039 30.4645L68.631 33.6298L72.1681 29.5659C73.0272 28.575 74.1275 28.0763 75.4655 28.0763C76.7304 28.0763 77.4962 28.6464 77.7673 29.7853C77.8584 30.1685 77.8811 30.5902 77.833 31.0616L77.2829 36.8507H83.4849V36.8511ZM103.007 36.8511H96.7066L97.2059 28.5045H88.7672C86.6598 28.5045 85.0279 29.0904 83.8824 30.2687C82.6161 31.5663 82.2445 33.3301 82.7771 35.5694C83.0713 36.8071 83.6779 37.8147 84.5995 38.5866C85.517 39.359 86.5635 39.7422 87.7457 39.7422C89.347 39.7422 90.5379 39.0802 91.3212 37.7488C91.5854 38.8608 92.5324 39.4138 94.1698 39.4138H99.9078C101.896 39.4133 102.928 38.5593 103.007 36.8511ZM91.6598 31.0671L91.3337 36.8447C89.6139 36.8447 88.6409 36.3794 88.4193 35.4483C88.374 35.2567 88.3541 35.0433 88.3605 34.8076L88.5243 31.0671H91.6598ZM120.696 36.8511C120.873 37.5957 120.636 38.2304 119.978 38.7402C119.397 39.1888 118.733 39.4133 117.984 39.4133H112.184C110.645 39.4133 109.721 38.7402 109.4 37.393C109.319 37.0478 109.298 36.6809 109.334 36.2866L109.626 31.0671H106.538L105.388 35.6784C105.341 36.4615 104.928 36.8507 104.144 36.8507H102.811L103.408 31.0667C102.763 30.9187 102.184 30.5851 101.683 30.0651C101.178 29.5501 100.845 28.9531 100.685 28.2795C100.393 27.052 100.704 26.0996 101.613 25.4264C102.37 24.8735 103.367 24.5942 104.596 24.5942H107.028L106.704 28.504H114.791L114.322 36.8507H120.696V36.8511ZM134.138 36.8511H125.973L126.261 31.0671H127.186C128.962 31.0671 129.936 30.2131 130.109 28.5045H126.453L126.697 23.9252H123.357C122.979 25.1625 122.552 26.0731 122.078 26.6595C121.466 27.4092 120.409 28.0234 118.902 28.5049L118.633 31.0676H120.9L120.575 36.8451C120.543 37.1685 120.556 37.4644 120.623 37.7442C120.887 38.8552 121.763 39.4143 123.256 39.4143H130.967C133.013 39.4133 134.07 38.5593 134.138 36.8511Z" fill="white"/>
<path d="M71.1113 7.6712C72.1365 7.6712 72.9675 6.83791 72.9675 5.81C72.9675 4.78208 72.1365 3.94879 71.1113 3.94879C70.0861 3.94879 69.2551 4.78208 69.2551 5.81C69.2551 6.83791 70.0861 7.6712 71.1113 7.6712Z" fill="white"/>
<path d="M76.0535 7.6712C77.0787 7.6712 77.9097 6.83791 77.9097 5.81C77.9097 4.78208 77.0787 3.94879 76.0535 3.94879C75.0283 3.94879 74.1973 4.78208 74.1973 5.81C74.1973 6.83791 75.0283 7.6712 76.0535 7.6712Z" fill="white"/>
<path d="M124.344 7.6712C125.369 7.6712 126.2 6.83791 126.2 5.81C126.2 4.78208 125.369 3.94879 124.344 3.94879C123.319 3.94879 122.488 4.78208 122.488 5.81C122.488 6.83791 123.319 7.6712 124.344 7.6712Z" fill="white"/>
</svg>
