<svg width="19" height="21" viewBox="0 0 19 21" fill="none" xmlns="http://www.w3.org/2000/svg">
<path d="M18.657 10.5328C18.657 6.27383 15.7791 2.55958 11.6531 1.50021C11.2586 1.39727 10.8554 1.63746 10.7567 2.03204C10.6538 2.42663 10.894 2.82979 11.2886 2.92844C14.7584 3.81625 17.1816 6.9472 17.1816 10.5328C17.1816 13.6938 15.2988 16.4945 12.4809 17.7254L13.1629 16.1385C13.3215 15.7653 13.15 15.3321 12.7768 15.1692C12.4037 15.0105 11.9705 15.182 11.8075 15.5552L10.478 18.6518C10.3193 19.0249 10.4908 19.4581 10.864 19.6211L13.9606 20.9507C14.4238 21.1137 14.8098 20.8435 14.9299 20.5647C15.0886 20.1916 14.917 19.7584 14.5439 19.5954L13.1972 19.0164C16.4782 17.5324 18.657 14.2385 18.657 10.5328Z" fill="#FF0000"/>
<path d="M7.36845 18.1371C3.89868 17.245 1.47541 14.1184 1.47541 10.5328C1.47541 7.4147 3.3068 4.64831 6.06032 3.39165L5.42126 4.87563C5.26257 5.24877 5.42555 5.69911 5.80727 5.84494C6.25332 6.01221 6.63075 5.81063 6.77658 5.45893L8.10616 2.358C8.23483 2.05778 8.23054 1.60743 7.72015 1.3887L4.62351 0.0591139C4.25037 -0.0995781 3.81719 0.0719808 3.6542 0.445121C3.49551 0.818262 3.66707 1.25145 4.04021 1.41443L5.48131 2.03204C2.18738 3.52031 0 6.81853 0 10.5328C0 14.7917 2.88219 18.5017 7.00389 19.5654C7.50141 19.694 7.81451 19.3681 7.90029 19.0335C7.99893 18.6389 7.76304 18.2401 7.36845 18.1371Z" fill="#FF0000"/>
<path d="M10.2189 15.5924H8.69514V10.5331H6.31427V9.24738H12.6117V10.5331H10.2189V15.5924ZM6.31427 7.09269H12.6117V8.37836H6.31427V7.09269Z" fill="#FF0000"/>
</svg>
