<svg width="17" height="17" viewBox="0 0 17 17" fill="none" xmlns="http://www.w3.org/2000/svg">
<path d="M8.25 0C3.70095 0 0 3.70099 0 8.24997C0 12.7991 3.70095 16.5 8.25 16.5C12.7991 16.5 16.5 12.7991 16.5 8.24997C16.5 3.70099 12.7991 0 8.25 0ZM8.25 15C4.52805 15 1.5 11.972 1.5 8.25002C1.5 4.52808 4.52805 1.50008 8.25 1.50008C11.972 1.50008 15 4.52808 15 8.24997C15 11.972 11.972 15 8.25 15Z" fill="#FF0000"/>
<path d="M8.25 6.50033C7.8358 6.50033 7.5 6.83615 7.5 7.25037V12.2498C7.5 12.664 7.8358 12.9998 8.25 12.9998C8.6642 12.9998 9 12.664 9 12.2498V7.25037C9 6.8362 8.6642 6.50033 8.25 6.50033Z" fill="#FF0000"/>
<path d="M8.25 3.50033C8.0525 3.50033 7.85945 3.58033 7.7195 3.71984C7.58 3.85935 7.5 4.05286 7.5 4.25037C7.5 4.44788 7.58 4.64089 7.7195 4.7809C7.859 4.9204 8.0525 5.00041 8.25 5.00041C8.4475 5.00041 8.6405 4.9204 8.78045 4.7809C8.91995 4.64089 9 4.44788 9 4.25037C9 4.05286 8.91995 3.85935 8.78045 3.71984C8.6405 3.58028 8.4475 3.50033 8.25 3.50033Z" fill="#FF0000"/>
</svg>
