<svg width="22" height="22" viewBox="0 0 22 22" fill="none" xmlns="http://www.w3.org/2000/svg">
<path d="M21.7071 20.2929L18.3097 16.8955C19.7816 15.1097 20.6666 12.8229 20.6666 10.3333C20.6666 4.63553 16.0311 0 10.3333 0C4.63546 0 0 4.63553 0 10.3333C0 16.0311 4.63546 20.6667 10.3333 20.6667C12.8229 20.6667 15.1096 19.7816 16.8956 18.3097L20.293 21.7071C20.4881 21.9023 20.7441 22 21 22C21.256 22 21.5118 21.9023 21.7071 21.7071C22.0976 21.3165 22.0976 20.6835 21.7071 20.2929ZM2 10.3333C2 5.73833 5.73826 2 10.3333 2C14.9284 2 18.6666 5.73833 18.6666 10.3333C18.6666 14.9283 14.9284 18.6667 10.3333 18.6667C5.73826 18.6667 2 14.9284 2 10.3333Z" fill="#2B2A28"/>
</svg>
