<svg width="12" height="14" viewBox="0 0 12 14" fill="none" xmlns="http://www.w3.org/2000/svg">
<path d="M0 7C0 7.18565 0.0737499 7.3637 0.205025 7.49497C0.336301 7.62625 0.514348 7.7 0.7 7.7H6.013L4.403 9.303C4.33739 9.36807 4.28531 9.44549 4.24978 9.5308C4.21424 9.6161 4.19594 9.70759 4.19594 9.8C4.19594 9.89241 4.21424 9.9839 4.24978 10.0692C4.28531 10.1545 4.33739 10.2319 4.403 10.297C4.46807 10.3626 4.54549 10.4147 4.6308 10.4502C4.7161 10.4858 4.80759 10.5041 4.9 10.5041C4.99241 10.5041 5.0839 10.4858 5.1692 10.4502C5.2545 10.4147 5.33193 10.3626 5.397 10.297L8.197 7.497C8.26073 7.43043 8.31068 7.35193 8.344 7.266C8.41401 7.09558 8.41401 6.90442 8.344 6.734C8.31068 6.64807 8.26073 6.56957 8.197 6.503L5.397 3.703C5.33173 3.63773 5.25425 3.58596 5.16897 3.55064C5.0837 3.51532 4.9923 3.49714 4.9 3.49714C4.8077 3.49714 4.7163 3.51532 4.63102 3.55064C4.54575 3.58596 4.46827 3.63773 4.403 3.703C4.33773 3.76827 4.28596 3.84575 4.25064 3.93103C4.21532 4.0163 4.19714 4.1077 4.19714 4.2C4.19714 4.2923 4.21532 4.3837 4.25064 4.46897C4.28596 4.55425 4.33773 4.63173 4.403 4.697L6.013 6.3H0.7C0.514348 6.3 0.336301 6.37375 0.205025 6.50503C0.0737499 6.6363 0 6.81435 0 7ZM9.1 0H2.1C1.54305 0 1.0089 0.221249 0.615076 0.615076C0.221249 1.0089 0 1.54305 0 2.1V4.2C0 4.38565 0.0737499 4.5637 0.205025 4.69497C0.336301 4.82625 0.514348 4.9 0.7 4.9C0.885651 4.9 1.0637 4.82625 1.19497 4.69497C1.32625 4.5637 1.4 4.38565 1.4 4.2V2.1C1.4 1.91435 1.47375 1.7363 1.60503 1.60503C1.7363 1.47375 1.91435 1.4 2.1 1.4H9.1C9.28565 1.4 9.4637 1.47375 9.59497 1.60503C9.72625 1.7363 9.8 1.91435 9.8 2.1V11.9C9.8 12.0857 9.72625 12.2637 9.59497 12.395C9.4637 12.5263 9.28565 12.6 9.1 12.6H2.1C1.91435 12.6 1.7363 12.5263 1.60503 12.395C1.47375 12.2637 1.4 12.0857 1.4 11.9V9.8C1.4 9.61435 1.32625 9.4363 1.19497 9.30503C1.0637 9.17375 0.885651 9.1 0.7 9.1C0.514348 9.1 0.336301 9.17375 0.205025 9.30503C0.0737499 9.4363 0 9.61435 0 9.8V11.9C0 12.457 0.221249 12.9911 0.615076 13.3849C1.0089 13.7788 1.54305 14 2.1 14H9.1C9.65695 14 10.1911 13.7788 10.5849 13.3849C10.9788 12.9911 11.2 12.457 11.2 11.9V2.1C11.2 1.54305 10.9788 1.0089 10.5849 0.615076C10.1911 0.221249 9.65695 0 9.1 0Z" fill="white"/>
</svg>
